<?xml version="1.0" encoding="UTF-8"?>
<!-- Generator: visioncortex VTracer 0.6.3 -->
<svg version="1.1" xmlns="http://www.w3.org/2000/svg" width="1280" height="860">
<path d="M0 0 C422.4 0 844.8 0 1280 0 C1280 283.8 1280 567.6 1280 860 C857.6 860 435.2 860 0 860 C0 576.2 0 292.4 0 0 Z " fill="black" transform="translate(0,0)"/>
<path d="M0 0 C1.31 -0.01 2.61 -0.01 3.96 -0.02 C7.4 0.23 9.53 0.84 12.62 2.25 C14.66 2.72 16.7 3.12 18.76 3.49 C21.47 4.59 22.24 5.65 23.62 8.25 C23.99 11.06 24.23 13.68 24.31 16.5 C24.35 17.25 24.38 17.99 24.42 18.76 C24.5 20.59 24.56 22.42 24.62 24.25 C25.28 24.24 25.93 24.23 26.61 24.22 C70.5 23.61 70.5 23.61 86.62 39.25 C95.22 48.02 95.22 48.02 96.62 52.25 C90.68 52.58 84.75 52.91 78.62 53.25 C78.96 73.05 79.28 92.85 79.62 113.25 C94.64 113.42 94.64 113.42 109.66 113.55 C111.56 113.58 113.46 113.61 115.37 113.64 C116.33 113.64 117.29 113.64 118.29 113.64 C131.22 113.91 142.56 120.11 151.81 128.94 C164.46 142.16 171.03 157.28 171 175.44 C171 177.1 171 177.1 171 178.79 C170.88 187.15 170.63 196.48 164.99 203.2 C163.06 206.1 163.15 207.83 163.62 211.25 C165.27 214.36 165.27 214.36 167.5 217.31 C170.08 220.9 172.12 224.09 173.62 228.25 C174.27 229.61 174.91 230.96 175.56 232.31 C184.43 252.47 182.76 274.88 175.62 295.25 C175.29 296.24 174.97 297.23 174.62 298.25 C173.97 298.58 173.31 298.91 172.62 299.25 C172.21 300.26 171.8 301.27 171.38 302.31 C164.78 318.37 148.86 331.03 133.62 338.25 C131.97 338.94 130.31 339.62 128.62 340.25 C128.78 341.22 128.94 342.19 129.11 343.19 C131.6 360.86 129.42 378.11 118.77 392.8 C114.83 397.93 110.82 402.38 105.62 406.25 C104.63 406.25 103.64 406.25 102.62 406.25 C102.29 407.24 101.97 408.23 101.62 409.25 C97.4 411.32 93.1 412.82 88.62 414.25 C87.8 414.6 86.97 414.94 86.12 415.3 C81.31 416.61 76.77 416.5 71.81 416.44 C70.87 416.44 69.92 416.44 68.94 416.44 C63.1 416.4 57.42 415.99 51.62 415.25 C51.54 416.18 51.46 417.11 51.38 418.06 C49.27 432.66 40.17 444.52 28.62 453.25 C17.58 460.47 5.64 462.93 -7.38 461.25 C-16.58 459.14 -24.08 455.16 -31.38 449.25 C-32.54 448.33 -32.54 448.33 -33.73 447.39 C-39.71 442.45 -39.71 442.45 -40.38 438.25 C-41.04 438.25 -41.69 438.25 -42.38 438.25 C-49.62 424.26 -51.68 412.07 -51.62 396.35 C-51.62 394.87 -51.63 393.38 -51.63 391.9 C-51.64 387.85 -51.63 383.79 -51.62 379.74 C-51.62 375.36 -51.62 370.98 -51.62 366.6 C-51.63 358.03 -51.62 349.45 -51.61 340.88 C-51.6 330.9 -51.6 320.91 -51.6 310.93 C-51.6 293.11 -51.6 275.29 -51.58 257.48 C-51.57 240.2 -51.56 222.91 -51.56 205.63 C-51.56 204.57 -51.56 203.5 -51.56 202.4 C-51.56 201.34 -51.56 200.28 -51.56 199.18 C-51.56 179.49 -51.56 159.81 -51.55 140.12 C-51.54 133.16 -51.54 126.2 -51.54 119.24 C-51.54 110.77 -51.54 102.29 -51.53 93.81 C-51.52 89.48 -51.52 85.16 -51.52 80.83 C-51.52 76.87 -51.52 72.91 -51.51 68.95 C-51.51 67.52 -51.51 66.09 -51.51 64.66 C-51.53 48.52 -48.81 36.59 -41.38 22.25 C-40.71 22.25 -40.06 22.25 -39.38 22.25 C-39.17 21.53 -38.96 20.81 -38.75 20.06 C-36.97 16.42 -34.56 14.73 -31.38 12.25 C-30.42 11.17 -30.42 11.17 -29.44 10.06 C-26.68 7.64 -23.88 7.17 -20.38 6.25 C-20.05 5.59 -19.71 4.93 -19.38 4.25 C-17.41 3.69 -17.41 3.69 -15 3.25 C-9.39 2.23 -5.99 -0.02 0 0 Z " fill="#112E4E" transform="translate(444.375,183.75)"/>
<path d="M0 0 C0.78 0.23 1.55 0.46 2.36 0.7 C13.44 4.3 22.59 13.87 28 24 C31.51 31.02 34.25 37.64 34.26 45.59 C34.26 46.91 34.27 48.22 34.28 49.58 C34.27 51.04 34.27 52.49 34.27 53.95 C34.27 55.5 34.28 57.05 34.28 58.6 C34.29 62.86 34.29 67.12 34.29 71.38 C34.29 75.97 34.3 80.57 34.31 85.16 C34.33 94.17 34.33 103.17 34.33 112.17 C34.34 119.49 34.34 126.82 34.35 134.14 C34.36 154.9 34.37 175.66 34.37 196.42 C34.37 197.54 34.37 198.66 34.37 199.81 C34.37 200.93 34.37 202.05 34.37 203.21 C34.37 221.36 34.39 239.51 34.42 257.66 C34.45 276.31 34.46 294.95 34.46 313.6 C34.46 324.06 34.46 334.53 34.48 344.99 C34.5 353.9 34.51 362.82 34.49 371.73 C34.49 376.27 34.49 380.82 34.5 385.36 C34.52 389.53 34.52 393.69 34.5 397.86 C34.5 399.36 34.5 400.86 34.51 402.36 C34.63 419.41 30.39 431.68 18.5 443.88 C14.88 447.53 11.65 449.82 7 452 C6.34 452.66 5.68 453.32 5 454 C-8.13 459.21 -21.32 460.03 -34.64 455.07 C-37 454 -37 454 -40 452 C-40.33 449.44 -40.51 447.07 -40.56 444.5 C-40.41 439.27 -40.41 439.27 -43 435 C-45.04 434.76 -45.04 434.76 -47.36 434.88 C-48.23 434.89 -49.1 434.91 -49.99 434.92 C-51.82 434.97 -53.64 435.03 -55.46 435.08 C-60.49 435.17 -64.24 434.8 -69 433 C-72.61 432.43 -76.22 432 -79.86 431.56 C-83 431 -83 431 -86 429 C-87.27 428.66 -87.27 428.66 -88.56 428.31 C-96.31 425.35 -106.52 418.76 -110 411 C-110.99 410.34 -111.98 409.68 -113 409 C-113 408.34 -113 407.68 -113 407 C-109.38 405.79 -106.07 405.89 -102.31 405.94 C-101.61 405.94 -100.91 405.95 -100.19 405.95 C-98.46 405.96 -96.73 405.98 -95 406 C-95.11 398.19 -95.22 390.39 -95.34 382.58 C-95.39 378.96 -95.45 375.33 -95.5 371.71 C-95.54 368.22 -95.6 364.72 -95.65 361.23 C-95.68 359.24 -95.71 357.25 -95.73 355.26 C-95.75 354.06 -95.77 352.86 -95.79 351.62 C-95.81 350.56 -95.83 349.49 -95.84 348.4 C-95.73 346.05 -95.73 346.05 -97 345 C-98.43 344.9 -99.86 344.86 -101.29 344.86 C-102.2 344.85 -103.11 344.84 -104.05 344.84 C-105.54 344.83 -105.54 344.83 -107.06 344.82 C-109.16 344.8 -111.26 344.78 -113.36 344.75 C-116.67 344.72 -119.98 344.69 -123.3 344.67 C-126.49 344.66 -129.68 344.62 -132.88 344.57 C-134.34 344.58 -134.34 344.58 -135.84 344.58 C-146.93 344.38 -154.31 339.45 -163 333 C-163.78 332.47 -164.55 331.93 -165.35 331.38 C-176.27 323.55 -182.99 311.97 -186 299 C-186.49 295.95 -186.81 293.08 -187 290 C-187.12 288.14 -187.12 288.14 -187.23 286.24 C-187.74 273.98 -185.91 261.45 -179 251 C-181.23 246.89 -183.45 242.82 -186.06 238.94 C-195.28 224.96 -197.95 207.54 -198 191 C-197.5 190.01 -197.5 190.01 -197 189 C-196.83 187.3 -196.66 185.6 -196.51 183.9 C-195.21 170.02 -190.2 158.31 -182 147 C-181.33 146.07 -180.66 145.15 -179.98 144.2 C-172.46 134.4 -162.96 127.53 -152 122 C-150.87 121.4 -149.73 120.8 -148.56 120.19 C-146 119 -146 119 -144 119 C-144.16 118.26 -144.31 117.52 -144.47 116.75 C-147.5 100.38 -146.11 83.96 -137.5 69.38 C-135.3 66.21 -132.85 63.6 -130 61 C-129.32 60.32 -128.65 59.64 -127.95 58.94 C-115.9 47.26 -102.53 42.64 -85.88 42.81 C-84.13 42.81 -84.13 42.81 -82.34 42.81 C-77.33 42.84 -72.94 43.01 -68 44 C-67.01 39.05 -66.02 34.1 -65 29 C-64.01 28.67 -63.02 28.34 -62 28 C-61.72 26.95 -61.44 25.9 -61.14 24.82 C-59.84 20.48 -57.78 17.97 -54.69 14.81 C-54.21 14.31 -53.74 13.8 -53.25 13.28 C-48.52 8.28 -45.02 4.65 -38 4 C-37.67 3.01 -37.34 2.02 -37 1 C-34.53 0.09 -32.24 -0.59 -29.69 -1.19 C-28.6 -1.45 -28.6 -1.45 -27.5 -1.71 C-17.68 -3.91 -9.35 -3.79 0 0 Z " fill="#CE242E" transform="translate(340,187)"/>
<path d="M0 0 C1.16 0.01 2.33 0.02 3.52 0.03 C5.41 0.04 5.41 0.04 7.33 0.05 C9.31 0.08 9.31 0.08 11.33 0.1 C12.67 0.11 14.01 0.12 15.35 0.13 C18.63 0.15 21.92 0.19 25.2 0.23 C25.2 0.89 25.2 1.55 25.2 2.23 C25.86 2.23 26.52 2.23 27.2 2.23 C27.47 3.07 27.75 3.91 28.03 4.78 C29.25 8.36 30.61 11.85 32.02 15.35 C32.28 16.01 32.54 16.67 32.82 17.34 C34.81 22.3 36.87 27.23 38.93 32.16 C40.33 35.52 41.67 38.91 43.02 42.29 C45.35 48.18 47.79 54.02 50.27 59.85 C52.45 65.01 54.6 70.17 56.58 75.41 C58.97 81.75 61.58 87.98 64.2 94.23 C67.26 101.52 70.27 108.82 73.06 116.22 C75.35 122.25 77.79 128.24 80.2 134.23 C80.99 136.21 81.79 138.19 82.58 140.16 C82.89 140.96 83.21 141.75 83.54 142.57 C83.87 143.39 83.87 143.39 84.2 144.23 C81.49 146.94 73.54 145.46 69.62 145.47 C67.34 145.48 65.07 145.51 62.79 145.54 C61.35 145.55 59.9 145.55 58.46 145.56 C57.14 145.56 55.82 145.57 54.46 145.58 C51.2 145.23 51.2 145.23 49.37 144.02 C47.93 141.81 47.07 139.66 46.19 137.16 C45.85 136.18 45.5 135.2 45.14 134.19 C44.79 133.17 44.44 132.15 44.08 131.1 C43.37 129.08 42.66 127.05 41.94 125.03 C41.63 124.13 41.32 123.24 41 122.31 C40.38 120.27 40.38 120.27 39.2 119.23 C37.45 119.13 35.7 119.11 33.95 119.11 C32.27 119.11 32.27 119.11 30.55 119.11 C29.33 119.12 28.11 119.12 26.85 119.13 C24.99 119.13 24.99 119.13 23.09 119.13 C19.79 119.14 16.48 119.15 13.17 119.16 C9.8 119.17 6.43 119.17 3.06 119.18 C-3.56 119.19 -10.18 119.21 -16.8 119.23 C-17.38 120.79 -17.38 120.79 -17.97 122.38 C-20.82 130.03 -23.71 137.66 -26.8 145.23 C-31.18 145.28 -35.55 145.31 -39.93 145.34 C-41.42 145.35 -42.91 145.36 -44.4 145.38 C-46.54 145.4 -48.68 145.41 -50.82 145.42 C-52.11 145.43 -53.4 145.44 -54.72 145.45 C-57.8 145.23 -57.8 145.23 -59.8 143.23 C-59.4 140.41 -58.32 138.03 -57.11 135.48 C-55.14 131.15 -53.45 126.75 -51.8 122.29 C-49.9 117.18 -47.97 112.09 -45.92 107.04 C-40.98 94.7 -36.23 82.28 -31.52 69.86 C-29.72 65.11 -27.92 60.4 -25.8 55.79 C-24.1 52.07 -22.72 48.28 -21.36 44.41 C-19.52 39.17 -17.51 34.04 -15.32 28.93 C-14.01 25.79 -12.78 22.61 -11.55 19.43 C-10.95 17.88 -10.95 17.88 -10.34 16.29 C-9.53 14.18 -8.72 12.08 -7.92 9.97 C-7.55 9 -7.17 8.03 -6.79 7.03 C-6.45 6.16 -6.12 5.28 -5.77 4.38 C-4.32 1.18 -3.55 0.29 0 0 Z " fill="white" transform="translate(771.79736328125,281.77294921875)"/>
<path d="M0 0 C1.12 0 2.24 0.01 3.39 0.01 C4.56 0.02 5.72 0.03 6.93 0.04 C8.1 0.04 9.28 0.04 10.5 0.05 C13.41 0.06 16.32 0.08 19.24 0.1 C20.52 4.42 19.93 6.65 18.07 10.7 C17.59 11.77 17.11 12.84 16.61 13.94 C16.1 15.04 15.58 16.15 15.05 17.29 C14.06 19.47 13.06 21.65 12.07 23.83 C11.59 24.89 11.1 25.95 10.6 27.04 C8.68 31.34 6.95 35.71 5.24 40.1 C1.8 48.63 -1.71 57.11 -5.57 65.46 C-10.6 75.39 -10.6 75.39 -12.76 86.1 C-4.18 85.77 4.4 85.44 13.24 85.1 C15.71 69.75 15.71 69.75 18.24 54.1 C21 53.18 22.62 52.98 25.47 53 C26.67 53 26.67 53 27.9 53.01 C29.15 53.02 29.15 53.02 30.43 53.04 C31.69 53.04 31.69 53.04 32.99 53.05 C35.07 53.06 37.15 53.08 39.24 53.1 C39.24 53.76 39.24 54.42 39.24 55.1 C39.9 55.1 40.56 55.1 41.24 55.1 C41.26 55.97 41.29 56.84 41.31 57.74 C41.41 60.97 41.51 64.2 41.61 67.43 C41.65 68.83 41.7 70.23 41.74 71.63 C41.79 73.64 41.86 75.65 41.92 77.66 C41.96 78.87 42 80.08 42.03 81.32 C41.93 84 41.93 84 43.24 85.1 C45.27 85.32 47.3 85.55 49.33 85.72 C51.24 86.1 51.24 86.1 53.24 88.1 C53.48 90.42 53.48 90.42 53.47 93.29 C53.47 94.32 53.46 95.34 53.46 96.4 C53.45 97.48 53.44 98.55 53.43 99.66 C53.42 101.28 53.42 101.28 53.42 102.93 C53.38 110.96 53.38 110.96 52.24 112.1 C50.56 112.33 48.87 112.51 47.18 112.66 C46.26 112.74 45.34 112.83 44.39 112.91 C43.68 112.97 42.97 113.04 42.24 113.1 C42.21 113.82 42.19 114.54 42.16 115.28 C42.05 118.54 41.92 121.79 41.8 125.04 C41.76 126.17 41.72 127.31 41.68 128.48 C41.64 129.56 41.6 130.64 41.55 131.75 C41.52 132.75 41.48 133.75 41.44 134.78 C41.24 137.1 41.24 137.1 40.24 138.1 C38.32 138.2 36.41 138.23 34.49 138.23 C33.32 138.23 32.16 138.23 30.96 138.23 C29.73 138.23 28.5 138.23 27.24 138.22 C26.01 138.23 24.78 138.23 23.52 138.23 C21.77 138.23 21.77 138.23 19.99 138.23 C18.91 138.23 17.83 138.23 16.72 138.23 C14.24 138.1 14.24 138.1 13.24 137.1 C13.15 135.32 13.13 133.53 13.14 131.75 C13.15 130.13 13.15 130.13 13.15 128.48 C13.16 126.77 13.16 126.77 13.18 125.04 C13.18 123.89 13.18 122.75 13.19 121.58 C13.2 118.75 13.22 115.93 13.24 113.1 C12.02 113.08 12.02 113.08 10.78 113.07 C3.14 112.97 -4.5 112.87 -12.13 112.76 C-16.06 112.7 -19.99 112.65 -23.92 112.6 C-27.7 112.55 -31.49 112.5 -35.28 112.44 C-36.72 112.42 -38.17 112.41 -39.62 112.39 C-41.64 112.36 -43.66 112.33 -45.68 112.3 C-46.83 112.29 -47.99 112.27 -49.17 112.26 C-51.76 112.1 -51.76 112.1 -52.76 111.1 C-52.55 104.56 -51 99.85 -48.16 93.99 C-46.73 91.02 -45.45 88.02 -44.2 84.97 C-42.76 81.49 -41.3 78.03 -39.76 74.6 C-36.69 67.75 -33.87 60.81 -31.03 53.87 C-30.72 53.13 -30.42 52.39 -30.11 51.63 C-29.52 50.2 -28.93 48.76 -28.35 47.32 C-26.25 42.2 -24.03 37.15 -21.76 32.1 C-20.73 29.78 -19.7 27.47 -18.66 25.15 C-17.97 23.6 -17.28 22.05 -16.59 20.5 C-13.99 14.66 -11.64 8.84 -9.64 2.77 C-7.77 -0.8 -3.53 -0.02 0 0 Z " fill="white" transform="translate(1013.76171875,288.90234375)"/>
<path d="M0 0 C1.21 0.01 2.42 0.01 3.67 0.02 C4.97 0.02 6.28 0.02 7.62 0.03 C9.01 0.03 10.4 0.04 11.79 0.05 C13.18 0.06 14.57 0.06 15.96 0.06 C19.38 0.08 22.8 0.09 26.22 0.11 C27.56 2.78 27.35 4.8 27.34 7.78 C27.35 8.99 27.35 10.19 27.35 11.44 C27.35 12.78 27.34 14.12 27.34 15.47 C27.34 16.88 27.34 18.29 27.34 19.69 C27.34 23.53 27.33 27.36 27.33 31.19 C27.32 35.19 27.32 39.2 27.32 43.2 C27.31 50.78 27.31 58.36 27.3 65.95 C27.29 74.58 27.28 83.21 27.27 91.84 C27.26 109.6 27.25 127.36 27.22 145.11 C17.32 145.11 7.42 145.11 -2.78 145.11 C-4.1 142.46 -3.9 140.46 -3.9 137.49 C-3.91 136.29 -3.91 135.1 -3.91 133.86 C-3.91 132.55 -3.91 131.23 -3.91 129.87 C-3.91 128.47 -3.91 127.07 -3.91 125.67 C-3.91 121.87 -3.91 118.07 -3.91 114.27 C-3.91 110.3 -3.91 106.33 -3.91 102.36 C-3.91 95.69 -3.91 89.02 -3.91 82.35 C-3.9 74.63 -3.9 66.91 -3.91 59.19 C-3.91 52.57 -3.91 45.95 -3.91 39.33 C-3.91 35.37 -3.91 31.41 -3.91 27.46 C-3.91 23.74 -3.91 20.02 -3.91 16.3 C-3.91 14.93 -3.91 13.56 -3.91 12.19 C-3.91 10.33 -3.91 8.47 -3.9 6.61 C-3.9 5.57 -3.9 4.52 -3.9 3.45 C-3.72 0.04 -3.45 0.14 0 0 Z " fill="white" transform="translate(895.775634765625,281.886474609375)"/>
<path d="M0 0 C0.66 0 1.32 0 2 0 C2 0.66 2 1.32 2 2 C3.32 2.33 4.64 2.66 6 3 C8.23 11.06 8.27 18.79 8.22 27.11 C8.22 28.64 8.22 30.17 8.22 31.7 C8.22 35.9 8.21 40.09 8.19 44.28 C8.18 48.81 8.17 53.34 8.17 57.86 C8.16 66.73 8.14 75.59 8.11 84.45 C8.09 91.65 8.07 98.85 8.05 106.04 C8.05 107.07 8.05 108.09 8.05 109.15 C8.04 111.23 8.04 113.31 8.03 115.4 C7.99 134.91 7.94 154.42 7.88 173.93 C7.82 191.79 7.79 209.66 7.76 227.52 C7.73 245.86 7.69 264.2 7.63 282.54 C7.6 292.84 7.58 303.14 7.56 313.44 C7.55 322.2 7.53 330.96 7.49 339.72 C7.48 344.19 7.46 348.66 7.46 353.13 C7.46 357.22 7.45 361.31 7.42 365.4 C7.42 366.89 7.41 368.37 7.42 369.85 C7.42 371.86 7.41 373.87 7.39 375.88 C7.39 377 7.38 378.11 7.38 379.27 C7 382 7 382 5.73 383.82 C3.82 385.12 2.26 385.61 0 386 C-2.64 376.52 -3.43 367.67 -3.37 357.86 C-3.37 356.38 -3.37 354.89 -3.38 353.4 C-3.39 349.35 -3.38 345.31 -3.36 341.26 C-3.35 336.88 -3.36 332.5 -3.36 328.12 C-3.37 319.55 -3.36 310.99 -3.34 302.43 C-3.32 292.45 -3.32 282.47 -3.32 272.49 C-3.32 254.69 -3.31 236.88 -3.28 219.08 C-3.26 201.81 -3.24 184.54 -3.24 167.27 C-3.24 166.21 -3.24 165.14 -3.24 164.05 C-3.24 161.9 -3.24 159.76 -3.24 157.61 C-3.24 156.55 -3.24 155.5 -3.24 154.41 C-3.24 153.35 -3.24 152.3 -3.24 151.21 C-3.23 134.74 -3.22 118.27 -3.21 101.79 C-3.21 95.83 -3.2 89.86 -3.2 83.9 C-3.19 74.44 -3.19 64.98 -3.17 55.52 C-3.17 51.2 -3.16 46.88 -3.16 42.56 C-3.16 38.6 -3.15 34.64 -3.14 30.69 C-3.14 29.26 -3.14 27.83 -3.14 26.4 C-3.15 6.31 -3.15 6.31 0 0 Z " fill="#1A3855" transform="translate(396,222)"/>
<path d="M0 0 C0.99 0 1.98 0 3 0 C12.07 1.49 19.65 11.17 25 18 C25.5 19.49 25.5 19.49 26 21 C20.06 21.33 14.12 21.66 8 22 C8.33 41.8 8.66 61.6 9 82 C24.02 82.17 24.02 82.17 39.03 82.3 C40.94 82.33 42.84 82.36 44.74 82.39 C45.71 82.39 46.67 82.39 47.66 82.39 C60.6 82.66 71.94 88.86 81.19 97.69 C93.92 111 100.37 126.06 100.31 144.31 C100.33 145.38 100.34 146.44 100.36 147.54 C100.37 154.52 99.94 161.55 97 168 C96.01 168.33 95.02 168.66 94 169 C93.67 169.99 93.34 170.98 93 172 C92.01 171.67 91.02 171.34 90 171 C90.01 169.45 90.01 169.45 90.02 167.87 C90.03 163.99 90.05 160.11 90.05 156.22 C90.06 154.55 90.07 152.88 90.08 151.21 C90.17 133.38 90.16 118.83 77.16 104.92 C70.71 99.19 63.1 92.63 54.16 93.12 C52.7 93.19 52.7 93.19 51.22 93.27 C50.18 93.32 49.14 93.38 48.06 93.44 C45.88 93.53 43.71 93.63 41.53 93.72 C38.38 93.85 35.23 93.99 32.07 94.15 C13.91 95.02 13.91 95.02 6.78 89.64 C0.9 84.24 -0.81 78.93 -1.2 71.07 C-1.18 69.71 -1.16 68.35 -1.12 66.99 C-1.12 66.26 -1.11 65.53 -1.1 64.78 C-1.08 62.48 -1.04 60.18 -1 57.88 C-0.95 54.83 -0.91 51.79 -0.88 48.74 C-0.86 48.05 -0.84 47.37 -0.82 46.66 C-0.78 42.38 -1.43 38.98 -3 35 C-3.49 35.16 -3.98 35.32 -4.49 35.49 C-11.84 36.98 -20.77 36.95 -27.27 33.03 C-35.79 25.35 -35.79 25.35 -36.3 19.64 C-36.3 18.33 -36.31 17.03 -36.31 15.69 C-36.34 13.74 -36.34 13.74 -36.36 11.76 C-35.98 7.75 -35.24 5.34 -33 2 C-30.08 0.6 -27.52 1.04 -24.38 1.5 C-21.07 2.07 -21.07 2.07 -18 1 C-16.09 0.77 -14.17 0.59 -12.25 0.44 C-11.22 0.35 -10.2 0.27 -9.14 0.18 C-6.08 0 -3.06 -0.03 0 0 Z " fill="#163553" transform="translate(515,215)"/>
<path d="M0 0 C7.1 -0.03 14.2 -0.04 21.31 -0.05 C23.73 -0.06 26.14 -0.07 28.56 -0.08 C32.03 -0.09 35.5 -0.09 38.96 -0.1 C40.05 -0.1 41.14 -0.11 42.26 -0.11 C43.76 -0.11 43.76 -0.11 45.3 -0.11 C46.63 -0.12 46.63 -0.12 47.98 -0.12 C50 0 50 0 51 1 C51.1 2.53 51.13 4.06 51.13 5.6 C51.13 6.57 51.14 7.55 51.14 8.56 C51.14 9.62 51.13 10.69 51.13 11.78 C51.13 12.87 51.13 13.95 51.14 15.07 C51.14 17.36 51.13 19.66 51.13 21.96 C51.13 25.48 51.13 29.01 51.14 32.54 C51.14 34.77 51.13 36.99 51.13 39.22 C51.13 40.28 51.14 41.35 51.14 42.44 C51.13 43.91 51.13 43.91 51.13 45.4 C51.13 46.27 51.13 47.13 51.13 48.03 C51 50 51 50 50 51 C48.47 51.09 46.93 51.12 45.39 51.11 C44.41 51.11 43.43 51.11 42.42 51.11 C41.35 51.11 40.28 51.1 39.18 51.1 C37.55 51.1 37.55 51.1 35.89 51.09 C32.41 51.09 28.92 51.08 25.44 51.06 C23.08 51.06 20.73 51.05 18.37 51.05 C12.58 51.04 6.79 51.02 1 51 C-0.22 48.56 -0.12 47 -0.11 44.27 C-0.11 43.29 -0.11 42.31 -0.11 41.3 C-0.11 40.24 -0.1 39.18 -0.1 38.09 C-0.1 37 -0.09 35.92 -0.09 34.8 C-0.09 31.32 -0.08 27.85 -0.06 24.38 C-0.06 22.02 -0.05 19.67 -0.05 17.32 C-0.04 11.55 -0.02 5.77 0 0 Z " fill="#173553" transform="translate(586,121)"/>
<path d="M0 0 C7.1 -0.03 14.2 -0.04 21.31 -0.05 C23.73 -0.06 26.14 -0.07 28.56 -0.08 C32.03 -0.09 35.5 -0.09 38.96 -0.1 C40.05 -0.1 41.14 -0.11 42.26 -0.11 C43.76 -0.11 43.76 -0.11 45.3 -0.11 C46.63 -0.12 46.63 -0.12 47.98 -0.12 C50 0 50 0 51 1 C51.09 2.57 51.12 4.14 51.11 5.7 C51.11 6.7 51.11 7.71 51.11 8.74 C51.11 9.83 51.1 10.91 51.1 12.04 C51.1 13.14 51.09 14.25 51.09 15.39 C51.09 18.95 51.08 22.51 51.06 26.06 C51.06 28.47 51.05 30.87 51.05 33.28 C51.04 39.18 51.02 45.09 51 51 C44.06 51.05 37.12 51.09 30.17 51.11 C27.81 51.12 25.45 51.13 23.09 51.15 C19.7 51.18 16.3 51.19 12.91 51.2 C11.85 51.21 10.79 51.22 9.7 51.23 C8.72 51.23 7.74 51.23 6.73 51.23 C5.43 51.23 5.43 51.23 4.1 51.24 C2 51 2 51 0 49 C-0.24 46.9 -0.24 46.9 -0.23 44.27 C-0.23 42.8 -0.23 42.8 -0.23 41.3 C-0.22 40.24 -0.21 39.18 -0.2 38.09 C-0.19 37 -0.19 35.92 -0.19 34.8 C-0.18 31.32 -0.15 27.85 -0.12 24.38 C-0.11 22.02 -0.11 19.67 -0.1 17.32 C-0.08 11.55 -0.04 5.77 0 0 Z " fill="#CE242E" transform="translate(131,658)"/>
<path d="M0 0 C5.18 3.21 8.32 6.07 10.01 12.07 C11.22 18.85 11.66 23.92 7.86 29.95 C3.17 35.04 -1.46 36.22 -8.18 37.43 C-10.78 37.66 -10.78 37.66 -11.88 38.94 C-12.01 41.7 -12.09 44.44 -12.12 47.21 C-12.15 48.92 -12.19 50.63 -12.22 52.34 C-12.27 55.04 -12.31 57.75 -12.35 60.46 C-12.39 63.06 -12.44 65.66 -12.5 68.27 C-12.5 69.08 -12.51 69.88 -12.52 70.72 C-12.61 74.57 -12.69 77.67 -14.88 80.94 C-19.25 80.84 -23.63 80.74 -28.01 80.62 C-29.5 80.58 -30.99 80.55 -32.48 80.52 C-34.62 80.47 -36.76 80.41 -38.9 80.35 C-40.19 80.32 -41.47 80.29 -42.8 80.26 C-45.88 79.94 -45.88 79.94 -47.88 77.94 C-48.18 75.22 -48.18 75.22 -48.25 71.79 C-48.29 70.56 -48.32 69.32 -48.36 68.05 C-48.38 66.76 -48.41 65.46 -48.44 64.12 C-48.5 61.58 -48.56 59.03 -48.63 56.48 C-48.65 55.35 -48.68 54.21 -48.7 53.04 C-48.78 49.98 -48.78 49.98 -49.5 47.23 C-49.88 44.94 -49.88 44.94 -48.12 41.69 C-45.88 38.94 -45.88 38.94 -42.88 37.94 C-39.23 37.68 -35.6 37.49 -31.95 37.33 C-27.78 37.22 -27.78 37.22 -23.88 35.94 C-22.41 27.97 -22.57 19.78 -22.45 11.7 C-22.41 10.62 -22.38 9.53 -22.35 8.42 C-22.33 7.44 -22.31 6.46 -22.29 5.45 C-21.81 2.54 -21.22 1.66 -18.88 -0.06 C-13.12 -1.98 -5.76 -2.1 0 0 Z " fill="#163553" transform="translate(497.875,279.0625)"/>
<path d="M0 0 C1.32 0.66 2.64 1.32 4 2 C4.05 3.28 4.1 4.55 4.15 5.87 C4.22 7.54 4.3 9.21 4.38 10.88 C4.41 11.72 4.44 12.56 4.47 13.43 C4.51 14.23 4.55 15.04 4.59 15.87 C4.62 16.61 4.65 17.35 4.68 18.12 C4.85 20.24 4.85 20.24 7 22 C7.71 21.32 7.71 21.32 8.44 20.62 C15.82 15.94 24.67 16.54 33 18 C39.38 20.67 41.79 26.2 45 32 C45.66 32.99 46.32 33.98 47 35 C48.13 43.15 46.08 50.13 42.25 57.25 C37.62 62.91 34.05 65.19 26.62 65.94 C18.21 66.28 11.56 64.54 4 61 C3.67 62.32 3.34 63.64 3 65 C1.33 65.04 -0.33 65.04 -2 65 C-3.78 63.22 -3.15 60.63 -3.16 58.23 C-3.17 56.99 -3.18 55.76 -3.19 54.49 C-3.2 53.13 -3.2 51.77 -3.2 50.41 C-3.21 49.03 -3.21 47.64 -3.22 46.26 C-3.23 43.35 -3.24 40.45 -3.24 37.55 C-3.25 33.82 -3.27 30.09 -3.3 26.36 C-3.32 23.5 -3.32 20.65 -3.32 17.79 C-3.33 16.41 -3.33 15.04 -3.35 13.66 C-3.36 11.74 -3.36 9.82 -3.36 7.9 C-3.36 6.81 -3.36 5.71 -3.37 4.59 C-3.25 3.73 -3.12 2.88 -3 2 C-2.01 1.34 -1.02 0.68 0 0 Z " fill="#CE252F" transform="translate(934,484)"/>
<path d="M0 0 C0.66 -1.65 1.32 -3.3 2 -5 C6.88 -4.12 6.88 -4.12 8 -3 C8.09 -1.62 8.12 -0.23 8.11 1.15 C8.11 2.03 8.11 2.91 8.11 3.82 C8.11 4.78 8.1 5.74 8.1 6.72 C8.1 7.7 8.09 8.67 8.09 9.68 C8.09 12.81 8.08 15.93 8.06 19.06 C8.06 21.18 8.05 23.29 8.05 25.41 C8.04 30.61 8.02 35.8 8 41 C5.53 41.5 5.53 41.5 3 42 C2.01 40.68 1.02 39.36 0 38 C-2.5 38.45 -3.95 38.96 -6 40.5 C-10.81 44.11 -17.34 43.43 -23.05 42.76 C-29.74 41.44 -35.8 37.82 -40 32.44 C-42.91 25.34 -43.67 15.27 -40.81 8.06 C-36.93 1.5 -33.12 -2.37 -26 -5 C-16.43 -7.35 -7.77 -6.03 0 0 Z " fill="#CE252F" transform="translate(1147,507)"/>
<path d="M0 0 C0.99 0 1.98 0 3 0 C3.66 -1.32 4.32 -2.64 5 -4 C7.47 -3.5 7.47 -3.5 10 -3 C10 12.18 10 27.36 10 43 C5 42 5 42 3.44 40.38 C2.96 39.92 2.49 39.47 2 39 C-0.58 39.16 -1.67 39.67 -3.5 41.5 C-6.32 44.32 -10 44.16 -13.81 44.19 C-22.27 44.05 -28.54 41.39 -35 36 C-39.88 30.77 -40.07 23.86 -40 17 C-39.46 10.72 -37.57 5.46 -33 1 C-23.06 -6.32 -10.06 -7.61 0 0 Z " fill="#CE242E" transform="translate(1031,506)"/>
<path d="M0 0 C5.94 -0.05 11.89 -0.09 17.83 -0.11 C19.86 -0.12 21.88 -0.13 23.9 -0.15 C26.81 -0.18 29.71 -0.19 32.62 -0.2 C33.53 -0.21 34.43 -0.22 35.37 -0.23 C36.21 -0.23 37.05 -0.23 37.92 -0.23 C39.03 -0.23 39.03 -0.23 40.17 -0.24 C42 0 42 0 44 2 C44.25 3.83 44.25 3.83 44.24 6.07 C44.25 7.32 44.25 7.32 44.25 8.6 C44.25 9.51 44.24 10.41 44.23 11.35 C44.23 12.27 44.23 13.2 44.23 14.16 C44.23 16.12 44.22 18.08 44.21 20.04 C44.19 23.05 44.19 26.07 44.19 29.08 C44.18 30.98 44.17 32.88 44.17 34.79 C44.17 35.69 44.17 36.6 44.16 37.53 C44.12 43.88 44.12 43.88 43 45 C39.91 45.1 36.84 45.14 33.75 45.13 C32.82 45.13 31.89 45.13 30.94 45.14 C28.97 45.14 27 45.13 25.04 45.13 C22.01 45.13 18.99 45.13 15.97 45.14 C14.06 45.14 12.16 45.13 10.25 45.13 C8.88 45.14 8.88 45.14 7.49 45.14 C1.11 45.11 1.11 45.11 0 44 C-0.09 42.62 -0.12 41.23 -0.11 39.85 C-0.11 38.53 -0.11 38.53 -0.11 37.18 C-0.11 35.74 -0.11 35.74 -0.1 34.28 C-0.1 33.3 -0.09 32.33 -0.09 31.32 C-0.09 28.19 -0.08 25.07 -0.06 21.94 C-0.06 19.82 -0.05 17.71 -0.05 15.59 C-0.04 10.39 -0.02 5.2 0 0 Z " fill="#112E4E" transform="translate(532,246)"/>
<path d="M0 0 C5.96 0.12 11.93 0.24 17.89 0.37 C19.92 0.42 21.95 0.46 23.98 0.5 C26.89 0.55 29.8 0.62 32.71 0.68 C33.63 0.7 34.54 0.72 35.48 0.73 C41.89 0.89 41.89 0.89 43 2 C43.09 3.38 43.12 4.77 43.11 6.15 C43.11 7.03 43.11 7.91 43.11 8.82 C43.11 9.78 43.1 10.74 43.1 11.72 C43.1 12.7 43.09 13.67 43.09 14.68 C43.09 17.81 43.08 20.93 43.06 24.06 C43.06 26.18 43.05 28.29 43.05 30.41 C43.04 35.61 43.02 40.8 43 46 C37.22 46.05 31.43 46.09 25.65 46.11 C23.68 46.12 21.71 46.13 19.74 46.15 C16.92 46.18 14.09 46.19 11.26 46.2 C10.38 46.21 9.5 46.22 8.59 46.23 C7.77 46.23 6.95 46.23 6.1 46.23 C5.38 46.23 4.66 46.24 3.92 46.24 C2 46 2 46 -1 44 C-1.28 41 -1.37 38.2 -1.33 35.2 C-1.33 34.32 -1.32 33.44 -1.32 32.54 C-1.32 30.69 -1.3 28.83 -1.28 26.98 C-1.25 24.14 -1.24 21.31 -1.23 18.47 C-1.23 16.67 -1.21 14.87 -1.2 13.07 C-1.2 12.22 -1.19 11.37 -1.19 10.5 C-1.18 9.71 -1.17 8.91 -1.16 8.09 C-1.15 7.4 -1.15 6.7 -1.14 5.99 C-0.99 3.89 -0.57 2.02 0 0 Z " fill="#CE242E" transform="translate(193,538)"/>
<path d="M0 0 C3.25 -0.38 3.25 -0.38 7 0 C10.34 4.15 12.19 8.65 13.94 13.62 C14.45 15.05 14.97 16.47 15.49 17.9 C15.87 18.94 15.87 18.94 16.26 20.01 C18.02 24.74 20.03 29.36 22 34 C23.3 37.13 24.59 40.27 25.89 43.41 C26.58 45.03 27.32 46.64 28.12 48.21 C29 50 29 50 29.44 52.06 C29.86 54.13 29.86 54.13 31.62 55.5 C32.08 56 32.53 56.49 33 57 C32.69 59.19 32.69 59.19 32 61 C29.81 61.31 29.81 61.31 27 61 C22.23 57.36 20.78 53.52 19 48 C13.41 47.06 7.98 46.82 2.31 46.81 C1.05 46.79 1.05 46.79 -0.24 46.78 C-1.46 46.77 -1.46 46.77 -2.7 46.77 C-3.43 46.77 -4.16 46.76 -4.91 46.76 C-7.36 47.04 -8.92 47.69 -11 49 C-12.53 51.58 -12.53 51.58 -13.69 54.56 C-15.95 59.95 -15.95 59.95 -17 61 C-19 61.04 -21 61.04 -23 61 C-23.77 58.74 -24.17 57.48 -23.35 55.2 C-23 54.59 -22.65 53.98 -22.29 53.35 C-19.85 48.84 -18.14 44.2 -16.44 39.38 C-14.55 34.06 -12.55 29.04 -10 24 C-8.96 21.4 -8.01 18.76 -7.06 16.12 C-5.02 10.55 -2.83 5.23 0 0 Z " fill="#CE262F" transform="translate(748,488)"/>
<path d="M0 0 C4.91 6.83 6.98 12.61 6 21 C1.9 22.14 -2.04 22.13 -6.27 22.1 C-7.06 22.1 -7.85 22.09 -8.67 22.09 C-11.2 22.09 -13.72 22.08 -16.25 22.06 C-17.97 22.06 -19.68 22.05 -21.4 22.05 C-25.6 22.04 -29.8 22.02 -34 22 C-31.83 27.78 -31.83 27.78 -27.5 31.88 C-26.91 32.26 -26.32 32.65 -25.72 33.05 C-20.59 35.87 -14.67 35.7 -9.12 34.25 C-6.87 33.13 -6.87 33.13 -5.62 30.94 C-4 29 -4 29 -0.31 28.25 C0.78 28.17 1.87 28.09 3 28 C3.33 28.99 3.66 29.98 4 31 C1.41 35.96 -2.01 39.4 -7 42 C-14.2 43.99 -22.44 43.59 -29.25 40.55 C-34.09 37.59 -37.42 35.14 -40 30 C-41.75 21.57 -42.08 12.56 -37.81 4.86 C-33.89 -0.89 -29.59 -3.88 -22.84 -5.53 C-14.85 -6.78 -6.05 -5.64 0 0 Z " fill="#CE252F" transform="translate(875,507)"/>
<path d="M0 0 C1.49 -0.02 1.49 -0.02 3.01 -0.05 C12.21 -0.05 12.21 -0.05 16.12 3.31 C19.7 10.45 19.12 25.67 17.12 33.31 C15.82 35.99 14.24 38.19 12.12 40.31 C7.99 40.57 3.83 40.5 -0.31 40.5 C-1.48 40.51 -2.65 40.52 -3.86 40.54 C-4.98 40.54 -6.1 40.54 -7.25 40.54 C-8.28 40.55 -9.31 40.55 -10.37 40.56 C-12.88 40.31 -12.88 40.31 -14.88 38.31 C-15.35 35.46 -15.72 32.68 -16 29.81 C-16.08 29 -16.17 28.18 -16.25 27.34 C-17.87 10.6 -17.87 10.6 -13.88 2.31 C-9.43 -0.65 -5.23 -0.02 0 0 Z " fill="#112E4E" transform="translate(610.875,124.6875)"/>
<path d="M0 0 C0.7 -0.01 1.41 -0.01 2.13 -0.02 C3.63 -0.03 5.12 -0.03 6.61 -0.04 C8.9 -0.05 11.18 -0.08 13.47 -0.11 C14.92 -0.12 16.37 -0.12 17.81 -0.12 C18.5 -0.14 19.19 -0.15 19.89 -0.16 C21.82 -0.15 21.82 -0.15 24.97 0.2 C27.37 3.81 27.23 5.49 27.24 9.77 C27.24 11.7 27.24 11.7 27.25 13.68 C27.24 14.68 27.24 14.68 27.23 15.71 C27.22 17.76 27.23 19.81 27.25 21.87 C27.24 23.15 27.24 24.44 27.24 25.77 C27.24 26.95 27.23 28.14 27.23 29.36 C26.97 32.2 26.97 32.2 24.97 34.2 C22.04 34.46 22.04 34.46 18.32 34.47 C17.66 34.47 17.01 34.47 16.33 34.47 C14.94 34.48 13.56 34.47 12.17 34.46 C10.05 34.45 7.93 34.46 5.8 34.48 C4.45 34.48 3.11 34.47 1.76 34.47 C0.53 34.47 -0.7 34.46 -1.96 34.46 C-5.03 34.2 -5.03 34.2 -8.03 32.2 C-8.38 29.15 -8.38 29.15 -8.36 25.26 C-8.35 24.58 -8.35 23.9 -8.35 23.19 C-8.34 21.75 -8.33 20.31 -8.31 18.86 C-8.28 16.65 -8.27 14.43 -8.26 12.21 C-8.18 0.05 -8.18 0.05 0 0 Z " fill="black" transform="translate(291.02734375,469.796875)"/>
<path d="M0 0 C4.52 -0.05 9.04 -0.09 13.56 -0.11 C15.1 -0.12 16.64 -0.13 18.18 -0.15 C20.39 -0.18 22.6 -0.19 24.8 -0.2 C25.49 -0.21 26.18 -0.22 26.89 -0.23 C28.6 -0.23 30.3 -0.12 32 0 C34 2 34 2 34.24 5.06 C34.24 6.34 34.23 7.62 34.23 8.94 C34.23 9.62 34.23 10.31 34.23 11.01 C34.23 12.45 34.22 13.9 34.21 15.34 C34.19 17.56 34.19 19.77 34.19 21.99 C34.15 32.85 34.15 32.85 33 34 C28.61 34.38 24.2 34.51 19.79 34.67 C17.57 34.75 15.36 34.85 13.15 34.96 C11.74 35.01 10.34 35.06 8.94 35.11 C7.66 35.16 6.38 35.21 5.06 35.26 C4.05 35.18 3.04 35.09 2 35 C-0.4 31.41 -0.26 28.85 -0.2 24.71 C-0.19 24 -0.19 23.29 -0.19 22.57 C-0.18 20.32 -0.15 18.06 -0.12 15.81 C-0.11 14.28 -0.11 12.76 -0.1 11.23 C-0.08 7.49 -0.04 3.74 0 0 Z " fill="black" transform="translate(218,475)"/>
<path d="M0 0 C4.52 -0.07 9.04 -0.13 13.56 -0.16 C15.1 -0.18 16.64 -0.2 18.18 -0.23 C20.39 -0.26 22.6 -0.28 24.8 -0.29 C25.84 -0.32 25.84 -0.32 26.89 -0.34 C28.84 -0.34 28.84 -0.34 32 0 C34.33 3.49 34.26 4.93 34.27 9.06 C34.27 10.84 34.27 10.84 34.27 12.67 C34.27 13.91 34.26 15.16 34.25 16.44 C34.26 18.3 34.26 18.3 34.27 20.2 C34.27 21.39 34.27 22.58 34.27 23.81 C34.26 24.9 34.26 25.99 34.26 27.11 C34.01 29.94 33.46 31.6 32 34 C27.62 33.91 23.24 33.8 18.87 33.68 C17.38 33.64 15.89 33.61 14.4 33.58 C12.26 33.53 10.12 33.47 7.98 33.41 C6.69 33.38 5.4 33.35 4.07 33.32 C1 33 1 33 -1 31 C-1.24 28.25 -1.24 28.25 -1.23 24.79 C-1.23 23.54 -1.23 22.3 -1.22 21.02 C-1.21 19.71 -1.2 18.41 -1.19 17.06 C-1.19 15.11 -1.19 15.11 -1.19 13.12 C-1.14 3.42 -1.14 3.42 0 0 Z " fill="black" transform="translate(451,326)"/>
<path d="M0 0 C0.73 0 1.45 0 2.2 0 C4.42 -0 6.63 -0.02 8.84 -0.04 C10.25 -0.04 11.65 -0.04 13.05 -0.04 C14.33 -0.05 15.61 -0.05 16.93 -0.06 C19.99 0.19 19.99 0.19 21.99 2.19 C22.17 4.62 22.22 6.94 22.19 9.38 C22.18 10.09 22.18 10.8 22.18 11.52 C22.17 13.79 22.14 16.05 22.12 18.31 C22.11 19.84 22.1 21.38 22.09 22.91 C22.07 26.67 22.03 30.43 21.99 34.19 C17.47 34.23 12.95 34.27 8.43 34.3 C6.89 34.31 5.35 34.32 3.81 34.34 C1.6 34.36 -0.61 34.37 -2.81 34.38 C-3.5 34.39 -4.19 34.4 -4.9 34.41 C-6.61 34.41 -8.31 34.31 -10.01 34.19 C-12.01 32.19 -12.01 32.19 -12.25 29.13 C-12.25 27.21 -12.25 27.21 -12.24 25.24 C-12.24 24.56 -12.24 23.88 -12.24 23.17 C-12.24 21.73 -12.23 20.29 -12.22 18.84 C-12.2 16.63 -12.2 14.41 -12.2 12.2 C-12.15 0.28 -11.92 0.04 0 0 Z " fill="black" transform="translate(528.009765625,319.814453125)"/>
<path d="M0 0 C4.4 -0.02 8.79 -0.04 13.19 -0.05 C14.69 -0.06 16.18 -0.07 17.68 -0.08 C19.83 -0.09 21.97 -0.09 24.12 -0.1 C26.06 -0.11 26.06 -0.11 28.04 -0.11 C31 0 31 0 32 1 C32.1 3.28 32.13 5.56 32.13 7.84 C32.13 8.53 32.13 9.21 32.14 9.92 C32.14 11.37 32.13 12.82 32.13 14.27 C32.13 16.49 32.13 18.72 32.14 20.94 C32.14 22.35 32.13 23.75 32.13 25.16 C32.13 26.44 32.13 27.73 32.13 29.06 C32 32 32 32 31 33 C26.74 33.22 22.48 33.19 18.22 33.19 C16.07 33.19 13.93 33.21 11.79 33.22 C10.43 33.23 9.08 33.23 7.72 33.23 C6.48 33.23 5.24 33.24 3.97 33.24 C1 33 1 33 -1 31 C-1.24 28.14 -1.24 28.14 -1.23 24.53 C-1.23 23.24 -1.23 21.95 -1.22 20.61 C-1.22 19.94 -1.21 19.26 -1.21 18.57 C-1.19 16.51 -1.19 14.45 -1.19 12.39 C-1.14 2.28 -1.14 2.28 0 0 Z " fill="#173654" transform="translate(533,162)"/>
<path d="M0 0 C4.54 -0.02 9.08 -0.04 13.62 -0.05 C15.16 -0.06 16.71 -0.07 18.25 -0.08 C20.47 -0.09 22.69 -0.09 24.9 -0.1 C25.6 -0.1 26.29 -0.11 27.01 -0.11 C28.67 -0.11 30.34 -0.06 32 0 C33.91 1.91 33.13 5.31 33.13 7.84 C33.13 8.53 33.13 9.21 33.14 9.92 C33.14 11.37 33.13 12.82 33.13 14.27 C33.13 16.49 33.13 18.72 33.14 20.94 C33.14 22.35 33.13 23.75 33.13 25.16 C33.13 26.44 33.13 27.73 33.13 29.06 C33 32 33 32 32 33 C27.4 33.25 22.79 33.19 18.19 33.19 C16.89 33.2 15.59 33.21 14.26 33.22 C12.39 33.23 12.39 33.23 10.48 33.23 C8.76 33.24 8.76 33.24 7.01 33.24 C4 33 4 33 0 31 C0 20.77 0 10.54 0 0 Z " fill="#163453" transform="translate(594,243)"/>
<path d="M0 0 C1.29 -0 2.59 -0 3.92 -0 C4.93 -0 4.93 -0 5.96 0 C8.02 0.01 10.09 0 12.15 -0 C13.44 -0 14.73 -0 16.06 0 C17.25 0 18.44 0 19.67 0 C22.4 0.13 22.4 0.13 23.4 1.13 C23.49 3.42 23.51 5.72 23.5 8.01 C23.49 8.7 23.49 9.39 23.49 10.09 C23.49 12.29 23.47 14.49 23.46 16.7 C23.46 18.18 23.45 19.67 23.45 21.16 C23.44 24.82 23.42 28.48 23.4 32.13 C19.58 33.04 16.17 33.2 12.26 33.05 C11.11 33 9.95 32.96 8.77 32.91 C7.57 32.86 6.38 32.81 5.15 32.76 C3.94 32.71 2.73 32.67 1.48 32.62 C-7.47 32.26 -7.47 32.26 -8.6 31.13 C-8.76 28.92 -8.85 26.69 -8.92 24.47 C-8.94 23.81 -8.96 23.14 -8.98 22.46 C-9.05 20.33 -9.11 18.2 -9.16 16.07 C-9.21 14.63 -9.25 13.19 -9.29 11.75 C-9.4 8.21 -9.5 4.67 -9.6 1.13 C-6.2 -0 -3.58 0 0 0 Z " fill="#CE242E" transform="translate(150.6015625,553.8671875)"/>
<path d="M0 0 C4.4 -0.02 8.79 -0.04 13.19 -0.05 C14.69 -0.06 16.18 -0.07 17.68 -0.08 C19.83 -0.09 21.97 -0.09 24.12 -0.1 C26.06 -0.11 26.06 -0.11 28.04 -0.11 C31 0 31 0 32 1 C32.09 3.29 32.11 5.59 32.1 7.88 C32.1 9.14 32.09 10.39 32.09 11.69 C32.08 13.3 32.07 14.9 32.06 16.56 C32.04 21.66 32.02 26.75 32 32 C21.77 32 11.54 32 1 32 C-1.13 27.74 -1.19 26.11 -0.98 21.48 C-0.93 20.23 -0.87 18.98 -0.82 17.7 C-0.76 16.39 -0.69 15.09 -0.62 13.75 C-0.57 12.43 -0.51 11.12 -0.45 9.76 C-0.31 6.5 -0.16 3.25 0 0 Z " fill="#CE242E" transform="translate(204,635)"/>
<path d="M0 0 C5.94 -0.05 11.89 -0.09 17.83 -0.11 C19.86 -0.12 21.88 -0.13 23.9 -0.15 C26.81 -0.18 29.71 -0.19 32.62 -0.2 C33.53 -0.21 34.43 -0.22 35.37 -0.23 C36.21 -0.23 37.05 -0.23 37.92 -0.23 C39.03 -0.23 39.03 -0.23 40.17 -0.24 C42 0 42 0 44 2 C44.25 3.83 44.25 3.83 44.24 6.07 C44.25 7.32 44.25 7.32 44.25 8.6 C44.25 9.51 44.24 10.41 44.23 11.35 C44.23 12.27 44.23 13.2 44.23 14.16 C44.23 16.12 44.22 18.08 44.21 20.04 C44.19 23.05 44.19 26.07 44.19 29.08 C44.18 30.98 44.17 32.88 44.17 34.79 C44.17 35.69 44.17 36.6 44.16 37.53 C44.12 43.88 44.12 43.88 43 45 C39.91 45.1 36.84 45.14 33.75 45.13 C32.82 45.13 31.89 45.13 30.94 45.14 C28.97 45.14 27 45.13 25.04 45.13 C22.01 45.13 18.99 45.13 15.97 45.14 C14.06 45.14 12.16 45.13 10.25 45.13 C8.88 45.14 8.88 45.14 7.49 45.14 C1.11 45.11 1.11 45.11 0 44 C-0.04 42.33 -0.04 40.67 0 39 C0.66 39.66 1.32 40.32 2 41 C2.5 40.36 2.99 39.72 3.5 39.06 C7.84 35.48 12.53 35.97 17.94 36.09 C19 36.11 19 36.11 20.08 36.13 C21.51 36.17 22.94 36.22 24.36 36.3 C27.66 36.39 29.65 36.23 32.43 34.41 C34.47 31.27 34.67 28.98 34.88 25.25 C34.95 24.08 35.03 22.91 35.12 21.7 C34.98 17.48 34.15 14.05 33 10 C32.24 9.99 31.48 9.98 30.69 9.97 C27.23 9.92 23.77 9.83 20.31 9.75 C19.11 9.74 17.92 9.72 16.68 9.71 C14.95 9.66 14.95 9.66 13.18 9.61 C11.58 9.58 11.58 9.58 9.95 9.55 C5.48 8.72 3.13 6.13 0 3 C0 2.01 0 1.02 0 0 Z " fill="#163553" transform="translate(532,246)"/>
<path d="M0 0 C4.6 3.83 7.42 7.95 8.29 13.98 C8.5 18.92 7.46 22.65 5 27 C1.15 31.07 -2.57 33.12 -8.19 33.31 C-14.82 33.22 -19.12 30.72 -23.94 26.31 C-26.99 21.41 -27.52 17.31 -26.62 11.63 C-25.06 5.83 -22.16 2.11 -17 -1 C-11.44 -2.81 -5.14 -2.92 0 0 Z " fill="black" transform="translate(1025,510)"/>
<path d="M0 0 C4.96 4.8 7.76 8.95 8.31 15.94 C8.11 22.41 4.93 26.41 0.5 30.8 C-3.54 34.03 -9.12 33.52 -14 33 C-19.33 31.33 -22.95 28.75 -26 24 C-27.67 19 -27.33 14.04 -26.5 8.88 C-24.11 4.3 -19.97 0.01 -14.99 -1.69 C-9.81 -2.5 -4.57 -2.77 0 0 Z " fill="black" transform="translate(1139,510)"/>
<path d="M0 0 C4.98 5.64 8.62 10.86 8.45 18.55 C7.4 24.31 3.81 28.67 -0.81 32.06 C-6.43 33.71 -11.07 33.56 -16.69 31.94 C-21.59 29.07 -25.19 25.44 -27 20 C-27.53 13.17 -25.78 8.13 -21.69 2.69 C-16.24 -2.76 -6.74 -4.25 0 0 Z " fill="black" transform="translate(965,510)"/>
<path d="M0 0 C2.3 2.3 2.84 3.94 3.92 7 C4.28 8.02 4.65 9.05 5.02 10.1 C5.41 11.2 5.79 12.3 6.19 13.44 C6.99 15.71 7.8 17.98 8.61 20.26 C9.21 21.96 9.21 21.96 9.82 23.7 C11.79 29.2 13.83 34.68 15.88 40.16 C17.09 43.42 18.2 46.62 19 50 C14.05 50.22 9.11 50.41 4.16 50.59 C2.47 50.66 0.79 50.72 -0.9 50.8 C-3.31 50.91 -5.73 50.99 -8.15 51.07 C-8.9 51.11 -9.66 51.15 -10.44 51.19 C-12.56 51.25 -12.56 51.25 -16 51 C-18 48 -18 48 -17.5 45.29 C-15.38 38.83 -13.05 32.56 -10.36 26.32 C-8.43 21.6 -6.78 16.79 -5.14 11.96 C-3.71 7.79 -2.07 3.91 0 0 Z " fill="black" transform="translate(783,322)"/>
<path d="M0 0 C8.6 8.83 7.9 19.63 7.78 31.34 C7.78 32.57 7.78 33.8 7.78 35.08 C7.73 44.13 7.73 44.13 6.59 45.27 C4.92 45.31 3.26 45.32 1.59 45.27 C-0.3 42.08 -0.63 39.82 -0.54 36.13 C-0.52 35.14 -0.5 34.16 -0.49 33.14 C-0.44 31.08 -0.38 29.02 -0.33 26.96 C-0.22 19.77 -0.75 13.89 -3.79 7.27 C-8.11 3.98 -13.17 4.6 -18.41 5.27 C-20.95 6.22 -22.15 6.88 -23.65 9.16 C-26.68 16.55 -27.03 23.41 -27.1 31.34 C-27.14 33.76 -27.18 36.19 -27.23 38.62 C-27.25 39.68 -27.26 40.75 -27.27 41.84 C-27.41 44.27 -27.41 44.27 -28.41 45.27 C-30.08 45.31 -31.74 45.32 -33.41 45.27 C-35.07 42.37 -35.66 40.3 -35.64 36.96 C-35.64 36.12 -35.64 35.28 -35.64 34.42 C-35.63 33.52 -35.62 32.62 -35.61 31.7 C-35.6 30.77 -35.6 29.84 -35.6 28.89 C-35.59 25.93 -35.56 22.98 -35.54 20.02 C-35.53 18.02 -35.52 16.01 -35.51 14.01 C-35.49 9.1 -35.45 4.18 -35.41 -0.73 C-33.09 -1.38 -33.09 -1.38 -30.41 -1.73 C-27.6 0.71 -27.6 0.71 -25.41 3.27 C-24.92 2.65 -24.42 2.04 -23.91 1.4 C-17.73 -3.86 -6.7 -4.8 0 0 Z " fill="#CE2831" transform="translate(1207.41015625,503.7265625)"/>
<path d="M0 0 C4.29 -0.05 8.58 -0.09 12.88 -0.12 C14.1 -0.14 15.32 -0.16 16.58 -0.18 C17.75 -0.18 18.92 -0.19 20.12 -0.2 C21.2 -0.21 22.27 -0.22 23.39 -0.23 C26 0 26 0 28 2 C28.23 4.34 28.23 4.34 28.2 7.23 C28.19 8.26 28.18 9.29 28.18 10.35 C28.16 11.43 28.14 12.51 28.12 13.62 C28.12 14.71 28.11 15.8 28.1 16.92 C28.07 19.61 28.04 22.31 28 25 C24.46 26.62 21.87 27.22 17.99 27.01 C16.6 26.94 16.6 26.94 15.19 26.87 C13.77 26.78 13.77 26.78 12.31 26.69 C11.35 26.64 10.39 26.59 9.4 26.54 C2.29 26.15 2.29 26.15 0 25 C0 16.75 0 8.5 0 0 Z " fill="#1A3855" transform="translate(499,105)"/>
<path d="M0 0 C1 1 1 1 1.11 3.41 C1.11 4.45 1.1 5.49 1.1 6.57 C1.09 7.69 1.09 8.82 1.09 9.97 C1.08 11.16 1.07 12.34 1.06 13.56 C1.06 14.75 1.05 15.94 1.05 17.16 C1.04 20.11 1.02 23.05 1 26 C-3.12 26.03 -7.25 26.05 -11.38 26.06 C-13.14 26.08 -13.14 26.08 -14.94 26.09 C-16.62 26.09 -16.62 26.09 -18.34 26.1 C-19.89 26.11 -19.89 26.11 -21.48 26.11 C-24 26 -24 26 -26 25 C-26 16.75 -26 8.5 -26 0 C-17.2 -1.1 -8.74 -1.71 0 0 Z " fill="#CE242E" transform="translate(268,699)"/>
<path d="M0 0 C1.35 0 2.7 0.01 4.05 0.02 C5.11 0.02 5.11 0.02 6.19 0.02 C8.47 0.03 10.74 0.04 13.01 0.05 C14.55 0.06 16.09 0.06 17.62 0.06 C21.4 0.08 25.17 0.09 28.95 0.11 C29.61 1.43 30.27 2.75 30.95 4.11 C30.33 4.51 29.71 4.9 29.07 5.3 C26.57 7.44 26.13 9.08 24.95 12.11 C24.14 13.45 23.28 14.77 22.39 16.05 C21.87 16.82 21.34 17.59 20.81 18.38 C20.19 19.28 19.58 20.18 18.95 21.11 C17.33 23.52 15.73 25.94 14.14 28.36 C13.74 28.95 13.34 29.54 12.93 30.15 C10.75 33.5 9.6 36.2 8.95 40.11 C9.57 40.13 10.2 40.15 10.84 40.17 C13.67 40.27 16.5 40.38 19.32 40.49 C20.31 40.52 21.29 40.55 22.31 40.58 C23.25 40.62 24.19 40.66 25.16 40.7 C26.03 40.73 26.9 40.76 27.79 40.79 C29.95 41.11 29.95 41.11 31.95 43.11 C31.57 45.24 31.57 45.24 30.95 47.11 C26 47.16 21.05 47.2 16.11 47.22 C14.42 47.23 12.74 47.25 11.05 47.26 C8.64 47.29 6.22 47.3 3.8 47.31 C3.05 47.32 2.29 47.33 1.51 47.34 C-0.34 47.34 -2.2 47.24 -4.05 47.11 C-4.71 46.45 -5.37 45.79 -6.05 45.11 C-5.68 44.64 -5.3 44.17 -4.91 43.68 C-2.2 40.18 0.25 36.72 2.32 32.8 C4.79 28.18 7.82 24.11 10.95 19.91 C13.89 15.8 16.41 11.49 18.95 7.11 C11.69 6.78 4.43 6.45 -3.05 6.11 C-3.38 4.46 -3.71 2.81 -4.05 1.11 C-3.05 0.11 -3.05 0.11 0 0 Z " fill="#CE252F" transform="translate(794.051025390625,501.886474609375)"/>
<path d="M0 0 C0.68 -0.03 1.36 -0.05 2.05 -0.08 C5.53 -0.09 7.57 0.35 10.6 2.09 C12.62 4.38 12.62 4.38 12.62 9.38 C1.4 9.38 -9.82 9.38 -21.38 9.38 C-21.4 14.47 -21.42 19.56 -21.44 24.81 C-21.45 26.42 -21.46 28.03 -21.47 29.69 C-21.47 30.95 -21.47 32.2 -21.47 33.5 C-21.48 34.79 -21.48 36.08 -21.49 37.42 C-21.71 40.26 -21.71 40.26 -20.38 41.38 C-18.11 41.52 -15.84 41.6 -13.57 41.66 C-12.88 41.67 -12.2 41.69 -11.5 41.71 C-9.31 41.77 -7.13 41.82 -4.94 41.88 C-2.06 41.94 0.81 42.02 3.68 42.09 C4.97 42.12 6.25 42.15 7.57 42.19 C10.62 42.38 10.62 42.38 12.62 43.38 C12.14 48.85 12.14 48.85 9.98 51.07 C6.87 52.8 4.67 52.64 1.12 52.5 C-3.22 52.28 -3.22 52.28 -7.47 52.91 C-11.46 53.89 -15.56 52.63 -19.38 51.38 C-23.17 48.45 -24.91 45.88 -26.38 41.38 C-26.64 38.22 -26.64 38.22 -26.62 34.88 C-26.63 33.77 -26.64 32.67 -26.64 31.53 C-26.38 28.38 -26.38 28.38 -25.38 26.04 C-23.66 21.48 -24.02 16.62 -23.98 11.79 C-23.81 5.87 -23.81 5.87 -21.63 3.39 C-14.87 0.34 -7.32 0.16 0 0 Z " fill="#153453" transform="translate(538.375,311.625)"/>
<path d="M0 0 C1.32 0.66 2.64 1.32 4 2 C4.3 8.05 3.33 11.13 -0.76 15.73 C-11.21 26.83 -22.81 34.94 -38.51 35.42 C-45.18 35.46 -50.96 35.08 -57 32 C-55.93 29.08 -55.22 27.22 -53 25 C-50.27 24.88 -50.27 24.88 -46.81 25.05 C-45.56 25.09 -44.3 25.13 -43 25.17 C-40.36 25.26 -37.73 25.38 -35.09 25.52 C-25.89 25.75 -20.82 24.2 -14 18 C-12.61 16.83 -12.61 16.83 -11.2 15.63 C-6.59 11.04 -3.56 6.98 -1 1 C-0.67 0.67 -0.34 0.34 0 0 Z " fill="#143352" transform="translate(486,610)"/>
<path d="M0 0 C0.88 -0.01 1.76 -0.02 2.67 -0.04 C3.51 -0.04 4.35 -0.04 5.22 -0.04 C5.99 -0.05 6.76 -0.05 7.56 -0.06 C9.5 0.19 9.5 0.19 11.5 2.19 C11.73 4.34 11.73 4.34 11.7 6.98 C11.69 7.92 11.68 8.86 11.68 9.83 C11.66 10.81 11.64 11.8 11.62 12.81 C11.62 13.81 11.61 14.8 11.6 15.82 C11.57 18.28 11.54 20.73 11.5 23.19 C7.85 23.22 4.21 23.23 0.56 23.25 C-1 23.26 -1 23.26 -2.59 23.28 C-3.58 23.28 -4.57 23.28 -5.59 23.29 C-6.96 23.29 -6.96 23.29 -8.37 23.3 C-10.5 23.19 -10.5 23.19 -11.5 22.19 C-11.59 20.63 -11.61 19.06 -11.6 17.5 C-11.59 16.55 -11.59 15.61 -11.59 14.63 C-11.58 13.64 -11.57 12.65 -11.56 11.62 C-11.56 10.63 -11.55 9.63 -11.55 8.6 C-11.54 6.13 -11.52 3.66 -11.5 1.19 C-7.96 -0.58 -3.89 0 0 0 Z " fill="#183654" transform="translate(562.5,74.8125)"/>
<path d="M0 0 C1.41 -0 1.41 -0 2.85 -0 C3.84 -0 4.83 0 5.84 0.01 C7.33 0 7.33 0 8.84 -0 C9.78 -0 10.72 -0 11.69 0 C12.56 0 13.42 0 14.32 0 C16.34 0.13 16.34 0.13 17.34 1.13 C17.72 4.45 17.81 7.8 17.97 11.13 C18.05 12.54 18.05 12.54 18.12 13.98 C18.17 14.88 18.21 15.77 18.26 16.7 C18.3 17.52 18.34 18.35 18.38 19.2 C18.34 21.13 18.34 21.13 17.34 22.13 C13.87 22.38 10.39 22.32 6.91 22.32 C5.93 22.33 4.95 22.34 3.94 22.36 C3 22.36 2.06 22.36 1.1 22.36 C0.23 22.37 -0.63 22.37 -1.52 22.38 C-3.66 22.13 -3.66 22.13 -5.66 20.13 C-5.9 18.18 -5.9 18.18 -5.89 15.82 C-5.88 14.97 -5.88 14.12 -5.88 13.25 C-5.87 12.37 -5.86 11.48 -5.84 10.57 C-5.84 9.68 -5.84 8.79 -5.84 7.88 C-5.79 0.01 -5.79 0.01 0 0 Z " fill="#CE252F" transform="translate(199.65625,731.8671875)"/>
<path d="M0 0 C3.65 -0.03 7.29 -0.05 10.94 -0.06 C12.5 -0.08 12.5 -0.08 14.09 -0.09 C15.58 -0.09 15.58 -0.09 17.09 -0.1 C18.46 -0.11 18.46 -0.11 19.87 -0.11 C22 0 22 0 23 1 C23.09 2.56 23.11 4.13 23.1 5.69 C23.09 6.64 23.09 7.58 23.09 8.55 C23.08 9.55 23.07 10.54 23.06 11.56 C23.06 12.56 23.05 13.56 23.05 14.58 C23.04 17.06 23.02 19.53 23 22 C19.35 22.03 15.71 22.05 12.06 22.06 C10.5 22.08 10.5 22.08 8.91 22.09 C7.92 22.09 6.93 22.09 5.91 22.1 C4.54 22.11 4.54 22.11 3.13 22.11 C1 22 1 22 0 21 C-0.09 19.44 -0.11 17.87 -0.1 16.31 C-0.09 15.36 -0.09 14.42 -0.09 13.45 C-0.08 12.45 -0.07 11.46 -0.06 10.44 C-0.06 9.44 -0.05 8.44 -0.05 7.42 C-0.04 4.94 -0.02 2.47 0 0 Z " fill="#143352" transform="translate(585,195)"/>
<path d="M0 0 C1.32 0.66 2.64 1.32 4 2 C4.1 9.44 4.17 16.88 4.22 24.31 C4.24 26.84 4.27 29.37 4.3 31.9 C4.35 35.54 4.37 39.18 4.39 42.82 C4.41 43.95 4.43 45.08 4.45 46.24 C4.45 52.49 4.25 56.28 0 61 C-4.8 65.14 -7.93 65.42 -14 65 C-14.66 63.68 -15.32 62.36 -16 61 C-15.39 60.75 -14.77 60.49 -14.14 60.23 C-13.33 59.89 -12.52 59.54 -11.69 59.19 C-10.89 58.85 -10.09 58.51 -9.26 58.17 C-6.91 56.95 -5.64 56.06 -4 54 C-3.55 51.62 -3.55 51.62 -3.62 48.92 C-3.6 47.37 -3.6 47.37 -3.58 45.78 C-3.59 44.11 -3.59 44.11 -3.59 42.4 C-3.58 40.68 -3.58 40.68 -3.56 38.93 C-3.51 34.02 -3.5 29.11 -3.49 24.2 C-3.47 20.62 -3.44 17.04 -3.41 13.46 C-3.41 12.35 -3.41 11.23 -3.42 10.08 C-3.4 8.53 -3.4 8.53 -3.38 6.95 C-3.38 5.59 -3.38 5.59 -3.38 4.19 C-3.25 3.47 -3.13 2.75 -3 2 C-2.01 1.34 -1.02 0.68 0 0 Z " fill="#CE242E" transform="translate(1087,501)"/>
<path d="M0 0 C3.48 -0.03 6.96 -0.05 10.44 -0.06 C11.93 -0.08 11.93 -0.08 13.45 -0.09 C14.39 -0.09 15.34 -0.09 16.31 -0.1 C17.62 -0.11 17.62 -0.11 18.96 -0.11 C21 0 21 0 22 1 C22.09 2.56 22.11 4.13 22.1 5.69 C22.09 6.64 22.09 7.58 22.09 8.55 C22.08 9.55 22.07 10.54 22.06 11.56 C22.06 12.56 22.05 13.56 22.05 14.58 C22.04 17.06 22.02 19.53 22 22 C18.71 22.23 15.42 22.43 12.12 22.62 C10.72 22.72 10.72 22.72 9.29 22.82 C7.94 22.9 7.94 22.9 6.57 22.98 C5.74 23.03 4.92 23.08 4.06 23.14 C2 23 2 23 0 21 C-0.23 18.85 -0.23 18.85 -0.2 16.21 C-0.19 15.27 -0.18 14.33 -0.18 13.36 C-0.16 12.37 -0.14 11.39 -0.12 10.38 C-0.12 9.38 -0.11 8.39 -0.1 7.37 C-0.07 4.91 -0.04 2.46 0 0 Z " fill="#CE242E" transform="translate(161,612)"/>
<path d="M0 0 C1.19 -0 1.19 -0 2.41 -0.01 C3.25 -0 4.08 0.01 4.94 0.02 C5.77 0.01 6.6 0 7.46 -0.01 C8.26 -0.01 9.05 -0 9.88 0 C10.61 0 11.34 0 12.09 0.01 C13.94 0.27 13.94 0.27 15.94 2.27 C16.16 4.33 16.16 4.33 16.13 6.84 C16.13 7.73 16.12 8.63 16.11 9.55 C16.1 10.49 16.08 11.43 16.06 12.39 C16.05 13.34 16.04 14.28 16.04 15.25 C16.01 17.59 15.98 19.93 15.94 22.27 C12.65 22.32 9.35 22.36 6.06 22.39 C4.66 22.42 4.66 22.42 3.22 22.44 C1.88 22.45 1.88 22.45 0.51 22.46 C-0.32 22.47 -1.15 22.48 -2 22.49 C-4.06 22.27 -4.06 22.27 -6.06 20.27 C-6.32 18.42 -6.32 18.42 -6.33 16.2 C-6.33 15.41 -6.33 14.61 -6.34 13.79 C-6.33 12.96 -6.32 12.12 -6.31 11.27 C-6.32 10.43 -6.33 9.6 -6.34 8.74 C-6.33 7.95 -6.33 7.15 -6.33 6.33 C-6.33 5.6 -6.32 4.87 -6.32 4.11 C-5.77 0.2 -3.39 0.01 0 0 Z " fill="black" transform="translate(276.0625,521.734375)"/>
<path d="M0 0 C1.25 0.05 1.25 0.05 2.52 0.11 C3.32 0.15 4.12 0.19 4.94 0.24 C5.67 0.28 6.4 0.31 7.15 0.35 C9 0.69 9 0.69 11 2.69 C11.23 4.66 11.23 4.66 11.2 7.04 C11.19 7.89 11.18 8.74 11.18 9.62 C11.16 10.51 11.14 11.4 11.12 12.31 C11.12 13.21 11.11 14.11 11.1 15.03 C11.07 17.25 11.04 19.47 11 21.69 C7.52 21.72 4.04 21.73 0.56 21.75 C-0.93 21.76 -0.93 21.76 -2.45 21.78 C-3.39 21.78 -4.34 21.78 -5.31 21.79 C-6.62 21.79 -6.62 21.79 -7.96 21.8 C-10 21.69 -10 21.69 -11 20.69 C-11.09 19.2 -11.11 17.71 -11.1 16.21 C-11.09 15.32 -11.09 14.42 -11.09 13.49 C-11.08 12.54 -11.07 11.6 -11.06 10.62 C-11.06 9.68 -11.05 8.73 -11.05 7.75 C-11.04 5.39 -11.02 3.04 -11 0.69 C-7.57 -1.03 -3.76 -0.21 0 0 Z " fill="black" transform="translate(499,218.3125)"/>
<path d="M0 0 C3.29 -0.03 6.58 -0.05 9.88 -0.06 C10.81 -0.07 11.75 -0.08 12.71 -0.09 C14.06 -0.09 14.06 -0.09 15.43 -0.1 C16.67 -0.11 16.67 -0.11 17.94 -0.11 C20 0 20 0 22 1 C22.03 4.15 22.05 7.29 22.06 10.44 C22.07 11.34 22.08 12.23 22.09 13.16 C22.09 14.44 22.09 14.44 22.1 15.75 C22.11 16.93 22.11 16.93 22.11 18.14 C22 20 22 20 21 21 C17.86 21.25 14.71 21.19 11.56 21.19 C10.68 21.2 9.79 21.21 8.88 21.22 C8.03 21.23 7.19 21.23 6.32 21.23 C5.54 21.23 4.76 21.24 3.96 21.24 C2 21 2 21 0 19 C-0.23 17.03 -0.23 17.03 -0.2 14.65 C-0.19 13.8 -0.18 12.95 -0.18 12.07 C-0.16 11.18 -0.14 10.29 -0.12 9.38 C-0.12 8.48 -0.11 7.58 -0.1 6.66 C-0.07 4.44 -0.04 2.22 0 0 Z " fill="black" transform="translate(444,257)"/>
<path d="M0 0 C1.55 0 3.1 0.02 4.66 0.04 C5.83 0.04 5.83 0.04 7.04 0.04 C12.88 0.09 12.88 0.09 15.16 1.23 C15.19 4.54 15.2 7.86 15.22 11.17 C15.23 12.11 15.24 13.06 15.24 14.03 C15.25 15.38 15.25 15.38 15.25 16.76 C15.26 18.01 15.26 18.01 15.27 19.28 C15.16 21.23 15.16 21.23 14.16 22.23 C11.17 22.36 8.21 22.42 5.22 22.42 C4.38 22.43 3.54 22.44 2.68 22.46 C1.48 22.46 1.48 22.46 0.25 22.46 C-0.48 22.47 -1.22 22.47 -1.98 22.47 C-3.84 22.23 -3.84 22.23 -5.84 20.23 C-6.1 18.38 -6.1 18.38 -6.11 16.17 C-6.11 15.37 -6.11 14.57 -6.12 13.75 C-6.11 12.92 -6.1 12.09 -6.09 11.23 C-6.1 10.4 -6.11 9.57 -6.12 8.71 C-6.11 7.91 -6.11 7.11 -6.11 6.29 C-6.11 5.56 -6.1 4.83 -6.1 4.08 C-5.55 0.14 -3.66 0.22 0 0 Z " fill="black" transform="translate(264.84375,588.76953125)"/>
<path d="M0 0 C3.12 -0.03 6.25 -0.05 9.38 -0.06 C10.71 -0.08 10.71 -0.08 12.07 -0.09 C13.35 -0.09 13.35 -0.09 14.65 -0.1 C15.43 -0.1 16.22 -0.11 17.03 -0.11 C19 0 19 0 21 1 C21 7.6 21 14.2 21 21 C14.4 21 7.8 21 1 21 C-0.68 15.96 -1.25 13.33 -1.19 8.25 C-1.18 6.56 -1.18 6.56 -1.17 4.83 C-1 2 -1 2 0 0 Z " fill="black" transform="translate(477,286)"/>
<path d="M0 0 C1.98 0.5 1.98 0.5 4 1 C4.11 1.64 4.22 2.28 4.33 2.93 C4.49 3.76 4.65 4.59 4.81 5.44 C4.96 6.26 5.11 7.08 5.27 7.93 C5.51 8.62 5.75 9.3 6 10 C8.9 11.35 8.9 11.35 11.19 10 C15.31 8.53 17.73 8.97 22 10 C24.12 12.12 24.12 12.12 25 15 C24.38 18.69 24.38 18.69 23 22 C18.71 24.86 15.04 24.35 10.06 23.5 C9.38 23.34 8.7 23.17 8 23 C5.17 26.2 4.48 28.78 4 33 C0.12 32.12 0.12 32.12 -1 31 C-1.1 28.88 -1.13 26.75 -1.13 24.63 C-1.13 23.33 -1.14 22.04 -1.14 20.7 C-1.13 20.02 -1.13 19.34 -1.13 18.64 C-1.13 16.57 -1.13 14.51 -1.14 12.44 C-1.14 11.14 -1.13 9.84 -1.13 8.5 C-1.13 7.31 -1.13 6.11 -1.13 4.87 C-1 2 -1 2 0 0 Z " fill="#102C4B" transform="translate(533,162)"/>
<path d="M0 0 C2.94 -0.08 5.87 -0.14 8.81 -0.19 C9.65 -0.21 10.48 -0.24 11.34 -0.26 C12.54 -0.28 12.54 -0.28 13.77 -0.29 C14.88 -0.32 14.88 -0.32 16.01 -0.34 C18.6 0.1 19.46 0.89 21 3 C21.24 5.79 21.33 8.34 21.25 11.12 C21.24 11.87 21.24 12.61 21.23 13.37 C21.15 18.85 21.15 18.85 20 20 C18.58 20.09 17.16 20.11 15.75 20.1 C14.89 20.09 14.04 20.09 13.16 20.09 C12.26 20.08 11.36 20.07 10.44 20.06 C9.54 20.06 8.63 20.05 7.71 20.05 C5.47 20.04 3.24 20.02 1 20 C-0.15 17.7 -0.12 16.42 -0.1 13.87 C-0.09 13.06 -0.09 12.26 -0.09 11.43 C-0.08 10.58 -0.07 9.74 -0.06 8.88 C-0.06 8.03 -0.05 7.18 -0.05 6.3 C-0.04 4.2 -0.02 2.1 0 0 Z " fill="black" transform="translate(303,552)"/>
<path d="M0 0 C1.98 0.5 1.98 0.5 4 1 C4.33 2.32 4.66 3.64 5 5 C5.66 5 6.32 5 7 5 C6.67 7.31 6.34 9.62 6 12 C6.27 11.19 6.27 11.19 6.55 10.36 C6.8 9.64 7.05 8.92 7.31 8.19 C7.56 7.48 7.8 6.77 8.05 6.04 C9.14 3.71 9.91 2.51 12 1 C14.88 0.45 14.88 0.45 18.12 0.25 C19.2 0.17 20.28 0.1 21.38 0.02 C22.25 0.01 23.11 0.01 24 0 C25 1 25 1 25.06 3.56 C25.04 4.37 25.02 5.17 25 6 C24.26 6.09 23.53 6.17 22.77 6.26 C18.09 6.94 14.8 7.41 10.94 10.25 C7.49 15.14 6.75 19.81 6.59 25.71 C6.55 26.95 6.51 28.2 6.47 29.48 C6.44 30.77 6.41 32.05 6.38 33.38 C6.34 34.68 6.3 35.99 6.26 37.34 C6.16 40.56 6.08 43.78 6 47 C4.19 47.62 4.19 47.62 2 48 C1.01 47.34 0.02 46.68 -1 46 C-1.32 44.01 -1.32 44.01 -1.25 41.55 C-1.23 40.63 -1.21 39.71 -1.19 38.76 C-1.15 37.76 -1.11 36.77 -1.07 35.74 C-1.03 34.21 -1.03 34.21 -0.99 32.66 C-0.91 29.4 -0.8 26.14 -0.69 22.88 C-0.62 20.67 -0.56 18.46 -0.5 16.25 C-0.35 10.84 -0.18 5.42 0 0 Z " fill="#CE242E" transform="translate(896,502)"/>
<path d="M0 0 C1.2 0.07 1.2 0.07 2.43 0.14 C3.23 0.18 4.04 0.21 4.88 0.25 C5.8 0.32 5.8 0.32 6.74 0.39 C10.33 5.93 10.41 11.01 9.74 17.39 C8.94 20.84 7.9 24.04 6.74 27.39 C2.45 27.39 -1.84 27.39 -6.26 27.39 C-5.27 27.06 -4.28 26.73 -3.26 26.39 C-3.6 25.52 -3.6 25.52 -3.95 24.62 C-6.35 17.78 -6.91 11.52 -5.26 4.39 C-3.76 1.62 -3.15 0.54 0 0 Z " fill="#112E4E" transform="translate(609.26171875,247.609375)"/>
<path d="M0 0 C0.94 -0.01 1.88 -0.03 2.84 -0.04 C6.64 0.29 8.62 1.23 11.2 4.03 C11.71 4.72 12.22 5.41 12.75 6.12 C13.27 6.81 13.79 7.5 14.33 8.21 C15.5 10.19 15.5 10.19 15.5 13.19 C12.63 14.62 10.16 14.3 6.96 14.29 C5.66 14.28 4.36 14.28 3.02 14.28 C1.64 14.27 0.26 14.26 -1.12 14.25 C-2.51 14.24 -3.9 14.24 -5.29 14.24 C-8.69 14.22 -12.1 14.21 -15.5 14.19 C-16.66 9.46 -16.66 9.46 -15.21 6.98 C-14.58 6.31 -13.96 5.63 -13.31 4.94 C-12.39 3.91 -12.39 3.91 -11.46 2.86 C-7.96 -0.13 -4.47 0.03 0 0 Z " fill="black" transform="translate(858.5,507.8125)"/>
<path d="M0 0 C3 1 3 1 4.54 3.95 C5.06 5.19 5.56 6.44 6.06 7.69 C6.32 8.3 6.57 8.91 6.84 9.54 C8.03 12.45 9.11 15.34 10.06 18.33 C10.82 21.11 10.82 21.11 13 23 C13 23.99 13 24.98 13 26 C10.6 27.2 9.11 27.11 6.43 27.1 C5.53 27.09 4.64 27.09 3.71 27.09 C2.78 27.08 1.84 27.07 0.88 27.06 C-0.07 27.06 -1.01 27.05 -1.99 27.05 C-4.33 27.04 -6.66 27.02 -9 27 C-10.31 23.4 -9.7 21.54 -8.16 18.09 C-7.76 17.16 -7.35 16.23 -6.94 15.28 C-6.5 14.32 -6.07 13.36 -5.62 12.38 C-4.99 10.92 -4.99 10.92 -4.34 9.45 C-1.43 2.85 -1.43 2.85 0 0 Z " fill="black" transform="translate(751,501)"/>
<path d="M0 0 C0.03 0.57 0.05 1.14 0.08 1.73 C0.19 4.3 0.31 6.87 0.44 9.44 C0.48 10.34 0.52 11.23 0.56 12.16 C0.62 13.44 0.62 13.44 0.68 14.75 C0.72 15.54 0.76 16.33 0.79 17.14 C0.81 19.01 0.81 19.01 2 20 C3.42 20.09 4.84 20.11 6.25 20.1 C7.11 20.09 7.96 20.09 8.84 20.09 C10.19 20.08 10.19 20.08 11.56 20.06 C12.92 20.06 12.92 20.06 14.29 20.05 C16.53 20.04 18.76 20.02 21 20 C21.05 18.8 21.1 17.59 21.15 16.35 C21.22 14.78 21.3 13.2 21.38 11.62 C21.42 10.43 21.42 10.43 21.47 9.22 C21.77 3.23 21.77 3.23 24 1 C26.79 6.23 26.97 12.43 25.43 18.1 C24.14 21.3 22.78 23.95 20 26 C11.92 27.07 3.45 26.44 -4 23 C-6.99 20.67 -7.8 19.59 -9 16 C-9.14 13.82 -9.22 11.63 -9.25 9.44 C-9.29 7.7 -9.29 7.7 -9.33 5.93 C-9.22 4.97 -9.11 4 -9 3 C-6.04 1.03 -3.6 0 0 0 Z " fill="#143352" transform="translate(444,257)"/>
<path d="M0 0 C0.6 0.35 1.2 0.7 1.81 1.06 C1.84 7.45 1.86 13.84 1.87 20.23 C1.87 22.41 1.88 24.59 1.89 26.76 C1.9 29.88 1.91 33 1.91 36.12 C1.92 37.1 1.92 38.08 1.93 39.09 C1.93 39.99 1.93 40.89 1.93 41.82 C1.93 42.62 1.93 43.41 1.93 44.23 C1.81 46.06 1.81 46.06 0.81 47.06 C-1.69 47.19 -1.69 47.19 -4.19 47.06 C-5.19 46.06 -5.19 46.06 -5.31 44.2 C-5.31 43.38 -5.3 42.57 -5.3 41.73 C-5.3 40.81 -5.3 39.88 -5.3 38.94 C-5.3 37.93 -5.29 36.93 -5.29 35.9 C-5.28 34.88 -5.28 33.86 -5.28 32.81 C-5.28 29.54 -5.26 26.27 -5.25 23 C-5.24 20.79 -5.24 18.58 -5.24 16.37 C-5.23 10.93 -5.21 5.5 -5.19 0.06 C-2.19 -0.94 -2.19 -0.94 0 0 Z " fill="#CE242E" transform="translate(1063.1875,501.9375)"/>
<path d="M0 0 C1.32 0 2.64 0 4 0 C4.79 9.5 -0.02 15.54 -5.91 22.66 C-8.74 25.83 -11.58 28.45 -15 31 C-15.99 31 -16.98 31 -18 31 C-18.5 32.49 -18.5 32.49 -19 34 C-22.65 35.47 -25.01 36.24 -28.88 35.31 C-31 34 -31 34 -32 31 C-30 29 -30 29 -26.81 28.81 C-22.21 27.83 -20.82 26.27 -17.76 22.89 C-16.07 21.07 -14.32 19.6 -12.38 18.06 C-6.93 13.48 -4.07 7.3 -1 1 C-0.67 0.67 -0.34 0.34 0 0 Z " fill="#153352" transform="translate(565,559)"/>
<path d="M0 0 C1.21 0.01 2.42 0.01 3.67 0.02 C4.97 0.02 6.28 0.02 7.62 0.03 C9.01 0.03 10.4 0.04 11.79 0.05 C13.18 0.06 14.57 0.06 15.96 0.06 C19.38 0.08 22.8 0.09 26.22 0.11 C26.22 0.77 26.22 1.43 26.22 2.11 C16.98 2.11 7.74 2.11 -1.78 2.11 C-1.78 44.68 -1.78 87.25 -1.78 131.11 C-2.44 131.11 -3.1 131.11 -3.78 131.11 C-3.8 114.18 -3.82 97.25 -3.83 80.32 C-3.83 72.45 -3.84 64.59 -3.85 56.73 C-3.86 49.88 -3.87 43.03 -3.87 36.18 C-3.87 32.55 -3.87 28.92 -3.88 25.29 C-3.89 21.25 -3.89 17.21 -3.89 13.16 C-3.89 11.95 -3.9 10.74 -3.9 9.49 C-3.9 8.39 -3.9 7.3 -3.9 6.17 C-3.9 5.21 -3.9 4.25 -3.9 3.27 C-3.71 -0.01 -3.32 0.14 0 0 Z " fill="white" transform="translate(895.775634765625,281.886474609375)"/>
<path d="M0 0 C0.99 0.5 0.99 0.5 2 1 C4.13 1.14 6.26 1.23 8.4 1.28 C9.68 1.32 10.97 1.36 12.29 1.39 C13.65 1.43 15.01 1.47 16.38 1.5 C19.03 1.57 21.68 1.64 24.34 1.72 C26.11 1.76 26.11 1.76 27.92 1.81 C30.45 1.97 32.58 2.26 35 3 C35.2 6.72 35.15 7.77 33 11 C30.07 11.83 27.03 11.85 24 12 C23.2 12.04 22.4 12.08 21.57 12.12 C14.3 12.31 6.17 12.11 0 8 C-0.41 5.29 -0.13 2.76 0 0 Z " fill="#153453" transform="translate(450,357)"/>
<path d="M0 0 C0.68 -0.03 1.36 -0.05 2.05 -0.08 C5.53 -0.09 7.57 0.35 10.6 2.09 C12.62 4.38 12.62 4.38 12.62 9.38 C1.4 9.38 -9.82 9.38 -21.38 9.38 C-21.71 14 -22.03 18.62 -22.38 23.38 C-22.71 23.38 -23.03 23.38 -23.38 23.38 C-23.48 20.44 -23.56 17.5 -23.62 14.56 C-23.66 13.73 -23.69 12.9 -23.73 12.04 C-23.83 5.9 -23.83 5.9 -21.66 3.38 C-14.85 0.39 -7.34 0.16 0 0 Z " fill="#1A3755" transform="translate(538.375,311.625)"/>
<path d="M0 0 C1.39 0.01 2.79 0.02 4.18 0.04 C4.89 0.04 5.61 0.04 6.34 0.05 C8.1 0.06 9.86 0.08 11.62 0.1 C13.15 3.16 12.72 6.37 12.68 9.72 C12.68 10.43 12.67 11.14 12.67 11.86 C12.66 13.61 12.64 15.35 12.62 17.1 C9.1 18.24 6.1 18.05 2.43 17.72 C1.37 17.63 0.3 17.54 -0.8 17.45 C-3.38 17.1 -3.38 17.1 -4.38 16.1 C-4.48 13.59 -4.52 11.11 -4.5 8.6 C-4.51 7.9 -4.51 7.19 -4.52 6.47 C-4.5 0.13 -4.5 0.13 0 0 Z " fill="#CE242E" transform="translate(274.37890625,641.90234375)"/>
<path d="M0 0 C2.45 0.38 3.69 0.66 5.39 2.53 C5.82 3.18 6.25 3.83 6.69 4.5 C11.64 11.48 17.6 17.64 25 22 C24.67 23.32 24.34 24.64 24 26 C22.27 26.66 22.27 26.66 20 27 C13.89 24.15 7.5 19.02 3 14 C2.28 11.79 2.28 11.79 2 10 C1.34 10 0.68 10 0 10 C-2.22 4.58 -2.22 4.58 -1.12 1.62 C-0.75 1.09 -0.38 0.55 0 0 Z " fill="#13304E" transform="translate(402,612)"/>
<path d="M0 0 C1.32 1.32 2.64 2.64 4 4 C3.01 7.16 2.12 8.88 -0.31 11.19 C-3.46 14.48 -4.87 17.72 -6.59 21.89 C-8 24 -8 24 -10.47 24.92 C-13 25 -13 25 -16 23 C-15.25 16.38 -15.25 16.38 -13 13 C-12.34 13 -11.68 13 -11 13 C-10.79 12.28 -10.59 11.56 -10.38 10.81 C-8.6 7.17 -6.18 5.46 -3 3 C-1.98 2.02 -0.97 1.03 0 0 Z " fill="#143352" transform="translate(416,193)"/>
<path d="M0 0 C1.67 -0.04 3.33 -0.04 5 0 C6 1 6 1 6.12 2.98 C6.12 3.85 6.12 4.72 6.11 5.61 C6.11 7.08 6.11 7.08 6.11 8.58 C6.11 9.65 6.1 10.72 6.1 11.82 C6.1 12.9 6.09 13.99 6.09 15.11 C6.09 18.59 6.08 22.08 6.06 25.56 C6.06 27.92 6.05 30.27 6.05 32.63 C6.04 38.42 6.02 44.21 6 50 C5.01 49.67 4.02 49.34 3 49 C0.58 32.93 1.15 17.19 2 1 C1.34 0.67 0.68 0.34 0 0 Z " fill="#112E4E" transform="translate(631,121)"/>
<path d="M0 0 C4.88 0.88 4.88 0.88 6 2 C6.09 5.1 6.12 8.18 6.1 11.29 C6.1 12.22 6.09 13.15 6.09 14.11 C6.09 17.09 6.08 20.08 6.06 23.06 C6.06 25.08 6.05 27.1 6.05 29.12 C6.04 34.08 6.02 39.04 6 44 C4.51 44.5 4.51 44.5 3 45 C1.79 42.58 1.8 40.86 1.68 38.15 C1.64 37.16 1.6 36.17 1.56 35.15 C1.52 34.09 1.48 33.03 1.44 31.94 C1.39 30.86 1.35 29.79 1.31 28.68 C1.04 21.45 0.91 14.24 1.04 7 C1.14 3.38 1.14 3.38 0 0 Z " fill="#0A1932" transform="translate(570,246)"/>
<path d="M0 0 C5.94 1.21 5.94 1.21 8.35 3.62 C7.97 5.74 7.97 5.74 7.35 7.62 C3.76 7.68 0.18 7.71 -3.4 7.74 C-4.42 7.76 -5.43 7.78 -6.48 7.79 C-7.46 7.8 -8.44 7.81 -9.45 7.81 C-10.8 7.83 -10.8 7.83 -12.18 7.84 C-14.79 7.6 -16.41 6.94 -18.65 5.62 C-15.17 -2.42 -7.55 -1.09 0 0 Z " fill="#173554" transform="translate(519.65234375,592.3828125)"/>
<path d="M0 0 C3.88 0.88 3.88 0.88 5 2 C5.1 3.77 5.13 5.54 5.12 7.31 C5.13 8.28 5.13 9.24 5.13 10.24 C5.02 12.66 4.69 14.69 4 17 C10.03 18.07 15.89 18.1 22 18 C22.33 19.32 22.66 20.64 23 22 C19.35 22.03 15.71 22.05 12.06 22.06 C10.5 22.08 10.5 22.08 8.91 22.09 C7.92 22.09 6.93 22.09 5.91 22.1 C4.54 22.11 4.54 22.11 3.13 22.11 C1 22 1 22 0 21 C-0.09 19.44 -0.11 17.87 -0.1 16.31 C-0.09 15.36 -0.09 14.42 -0.09 13.45 C-0.08 12.45 -0.07 11.46 -0.06 10.44 C-0.06 9.44 -0.05 8.44 -0.05 7.42 C-0.04 4.94 -0.02 2.47 0 0 Z " fill="#0A162D" transform="translate(585,195)"/>
<path d="M0 0 C2 2 2 2 2.24 3.89 C2.24 5.02 2.24 5.02 2.23 6.18 C2.23 7 2.23 7.83 2.22 8.69 C2.21 9.55 2.2 10.42 2.19 11.31 C2.19 12.17 2.19 13.02 2.19 13.9 C2.16 18.06 2.04 21.95 1 26 C-1.87 25.43 -2.86 25.14 -5 23 C-5.39 20.2 -5.65 17.5 -5.81 14.69 C-5.88 13.93 -5.94 13.17 -6.01 12.38 C-6.29 7.73 -6.14 4.73 -3 1 C-2.01 0.67 -1.02 0.34 0 0 Z " fill="#1A3755" transform="translate(572,529)"/>
<path d="M0 0 C1.31 -0.01 2.61 -0.01 3.96 -0.02 C7.34 0.23 9.6 0.78 12.62 2.25 C12.62 2.91 12.62 3.57 12.62 4.25 C6.32 8.05 1 9.46 -6.38 8.25 C-9.06 6.38 -9.06 6.38 -10.38 4.25 C-10.38 3.59 -10.38 2.93 -10.38 2.25 C-6.61 -0.26 -4.49 -0.02 0 0 Z " fill="#153453" transform="translate(444.375,183.75)"/>
<path d="M0 0 C2.97 0 5.94 0 9 0 C10.61 5.71 9.09 9.69 7 15 C5.35 15.33 3.7 15.66 2 16 C-0.33 10.2 -1.44 6.14 0 0 Z " fill="#112E4E" transform="translate(509,115)"/>
<path d="M0 0 C4.29 -0.06 8.58 -0.09 12.88 -0.12 C14.1 -0.14 15.32 -0.16 16.58 -0.18 C17.75 -0.18 18.92 -0.19 20.12 -0.2 C21.2 -0.21 22.27 -0.22 23.39 -0.23 C26 0 26 0 28 2 C28 2.99 28 3.98 28 5 C23.9 5.06 19.79 5.09 15.69 5.12 C14.52 5.14 13.35 5.16 12.15 5.18 C10.47 5.19 10.47 5.19 8.76 5.2 C7.21 5.21 7.21 5.21 5.64 5.23 C3 5 3 5 0 3 C0 2.01 0 1.02 0 0 Z " fill="#0A162F" transform="translate(499,105)"/>
<path d="M0 0 C1.99 0.11 1.99 0.11 4 1 C6.95 5.45 8.46 10.73 9 16 C8.01 16 7.02 16 6 16 C5.67 16.99 5.34 17.98 5 19 C1.12 17.12 1.12 17.12 0 16 C-0.03 13.51 0.07 11.03 0.16 8.54 C-0.01 5.85 -0.64 4.3 -2 2 C-1.34 1.34 -0.68 0.68 0 0 Z " fill="#153352" transform="translate(614,411)"/>
<path d="M0 0 C0.69 -0.01 1.39 -0.02 2.1 -0.04 C3.92 -0.04 5.75 0.07 7.56 0.19 C9.56 2.19 9.56 2.19 9.56 7.19 C3.95 7.19 -1.66 7.19 -7.44 7.19 C-7.77 5.21 -8.1 3.23 -8.44 1.19 C-6.46 -0.79 -2.7 0 0 0 Z " fill="#0B1932" transform="translate(489.4375,169.8125)"/>
<path d="M0 0 C0.99 0.33 1.98 0.66 3 1 C3.06 5.42 3.09 9.83 3.12 14.25 C3.14 15.5 3.16 16.76 3.18 18.05 C3.18 19.26 3.19 20.46 3.2 21.7 C3.21 22.81 3.22 23.92 3.23 25.07 C3 27.94 2.49 29.57 1 32 C-1.34 28.48 -1.25 27.03 -1.23 22.87 C-1.23 21.67 -1.23 20.47 -1.22 19.24 C-1.21 17.98 -1.2 16.73 -1.19 15.44 C-1.19 14.18 -1.19 12.92 -1.19 11.63 C-1.14 2.28 -1.14 2.28 0 0 Z " fill="#0A162E" transform="translate(486,327)"/>
<path d="M0 0 C2.47 1.26 2.47 1.26 5 3 C5.41 6.08 5.52 8.57 5.38 11.62 C5.35 12.44 5.33 13.25 5.31 14.08 C5.24 16.39 5.13 18.69 5 21 C4.94 22.03 4.89 23.06 4.83 24.12 C4.36 29.64 4.36 29.64 2 32 C-0.2 28.46 -0.23 25.6 -0.2 21.48 C-0.19 20.23 -0.18 18.98 -0.18 17.7 C-0.16 16.39 -0.14 15.09 -0.12 13.75 C-0.12 12.43 -0.11 11.12 -0.1 9.76 C-0.07 6.51 -0.04 3.25 0 0 Z " fill="#0A162E" transform="translate(550,323)"/>
<path d="M0 0 C2.81 0.14 5.63 0.29 8.44 0.44 C9.24 0.48 10.04 0.52 10.87 0.56 C16.89 0.89 16.89 0.89 18 2 C18.04 3.67 18.04 5.33 18 7 C15.19 7.03 12.38 7.05 9.56 7.06 C8.76 7.07 7.96 7.08 7.13 7.09 C5.09 7.1 3.04 7.05 1 7 C0 6 0 6 -0.06 2.94 C-0.04 1.97 -0.02 1 0 0 Z " fill="#0A162E" transform="translate(481,179)"/>
<path d="M0 0 C3 2 3 2 4 5 C4.08 6.55 4.11 8.11 4.1 9.67 C4.09 11.01 4.09 11.01 4.09 12.37 C4.08 13.3 4.07 14.23 4.06 15.19 C4.06 16.13 4.05 17.07 4.05 18.04 C4.04 20.36 4.02 22.68 4 25 C3.34 25.33 2.68 25.66 2 26 C1.01 25.34 0.02 24.68 -1 24 C-1.25 21.37 -1.33 19 -1.25 16.38 C-1.24 15.65 -1.23 14.93 -1.22 14.19 C-1.12 9.4 -0.79 4.73 0 0 Z " fill="#153453" transform="translate(556,326)"/>
<path d="M0 0 C1.49 0.99 1.49 0.99 3 2 C3.34 4.52 3.34 4.52 3.29 7.66 C3.28 8.79 3.27 9.91 3.26 11.06 C3.24 12.24 3.21 13.41 3.19 14.62 C3.17 15.81 3.16 16.99 3.15 18.21 C3.11 21.14 3.06 24.07 3 27 C2.34 27.33 1.68 27.66 1 28 C-2.61 20.78 -2.27 7.59 0 0 Z " fill="#0A162E" transform="translate(612,345)"/>
<path d="M0 0 C1.32 0.66 2.64 1.32 4 2 C3.58 7.01 3.1 11.37 1 16 C1 16.66 1 17.32 1 18 C1.66 18 2.32 18 3 18 C3 20.31 3 22.62 3 25 C1.68 24.67 0.36 24.34 -1 24 C-1.03 20.19 -1.05 16.38 -1.06 12.56 C-1.07 11.47 -1.08 10.39 -1.09 9.26 C-1.09 8.23 -1.09 7.19 -1.1 6.13 C-1.1 5.17 -1.11 4.21 -1.11 3.22 C-1 1 -1 1 0 0 Z " fill="#153453" transform="translate(491,329)"/>
<path d="M0 0 C0.33 0 0.66 0 1 0 C1.33 8.25 1.66 16.5 2 25 C14.87 25.5 14.87 25.5 28 26 C28 26.66 28 27.32 28 28 C23.52 28.03 19.04 28.05 14.56 28.06 C13.28 28.07 12 28.08 10.69 28.09 C8.86 28.09 8.86 28.09 7 28.1 C5.88 28.1 4.75 28.11 3.59 28.11 C1 28 1 28 0 27 C-0.09 25 -0.11 23 -0.1 21 C-0.09 19.78 -0.09 18.57 -0.09 17.31 C-0.08 16.04 -0.07 14.76 -0.06 13.44 C-0.06 12.15 -0.05 10.87 -0.05 9.55 C-0.04 6.37 -0.02 3.18 0 0 Z " fill="black" transform="translate(141,560)"/>
<path d="M0 0 C0.33 0 0.66 0 1 0 C1.71 7.18 2.26 13.87 1 21 C-1.5 19.62 -1.5 19.62 -4 17 C-5.07 11.91 -4.57 7.4 -2 2.88 C-1.34 1.93 -0.68 0.98 0 0 Z " fill="#173554" transform="translate(624,437)"/>
<path d="M0 0 C3.56 0.19 3.56 0.19 5.56 2.19 C5.88 4.69 5.88 4.69 5.56 7.19 C2.34 9.34 1.3 9.57 -2.44 9.19 C-4.44 7.19 -4.44 7.19 -4.62 4.12 C-4.36 -0.09 -4.31 0.23 0 0 Z " fill="#112E4E" transform="translate(518.4375,224.8125)"/>
<path d="M0 0 C3.88 0.88 3.88 0.88 5 2 C5.51 7.88 5.95 13.23 2 18 C-0.38 14.3 -0.21 11.07 -0.12 6.75 C-0.11 5.49 -0.09 4.22 -0.07 2.92 C-0.05 1.96 -0.02 0.99 0 0 Z " fill="#0B1A33" transform="translate(585,195)"/>
<path d="M0 0 C3.16 1.37 3.99 1.99 6 5 C6.3 7.75 6.51 10.43 6.62 13.19 C6.66 13.94 6.7 14.69 6.74 15.46 C6.84 17.31 6.92 19.15 7 21 C6.34 21 5.68 21 5 21 C4.27 19.27 3.54 17.54 2.8 15.81 C1.99 13.9 1.99 13.9 0.75 11.81 C-0.22 9.46 0.16 8.36 1 6 C1.33 5.01 1.66 4.02 2 3 C1.34 2.67 0.68 2.34 0 2 C0 1.34 0 0.68 0 0 Z " fill="#163554" transform="translate(462,187)"/>
<path d="M0 0 C1.32 0.66 2.64 1.32 4 2 C3.53 6.06 3.12 9.47 1 13 C1 12.34 1 11.68 1 11 C0.36 10.86 -0.28 10.71 -0.94 10.56 C-3 10 -3 10 -4 9 C-3.75 5.56 -3.75 5.56 -3 2 C-2.01 1.34 -1.02 0.68 0 0 Z " fill="#173554" transform="translate(492,597)"/>
<path d="M0 0 C0.99 0.5 0.99 0.5 2 1 C4.18 1.15 6.36 1.25 8.54 1.32 C9.84 1.36 11.14 1.4 12.48 1.44 C13.86 1.48 15.24 1.52 16.62 1.56 C18.01 1.61 19.4 1.65 20.79 1.69 C24.19 1.8 27.6 1.9 31 2 C31 2.66 31 3.32 31 4 C21.1 4 11.2 4 1 4 C0.67 2.68 0.34 1.36 0 0 Z " fill="#344A62" transform="translate(450,357)"/>
<path d="M0 0 C0.33 0.99 0.66 1.98 1 3 C-2.09 4.03 -4.27 4.13 -7.5 4.12 C-8.94 4.13 -8.94 4.13 -10.41 4.13 C-13 4 -13 4 -16 3 C-16 2.01 -16 1.02 -16 0 C-14.27 -0.2 -12.54 -0.38 -10.81 -0.56 C-9.85 -0.67 -8.89 -0.77 -7.89 -0.88 C-5.06 -1 -2.75 -0.68 0 0 Z " fill="#153453" transform="translate(463,249)"/>
<path d="M0 0 C6.27 0 12.54 0 19 0 C19.33 0.99 19.66 1.98 20 3 C13.07 3 6.14 3 -1 3 C-0.67 2.01 -0.34 1.02 0 0 Z " fill="#0A162E" transform="translate(446,253)"/>
<path d="M0 0 C2 -0.04 4 -0.04 6 0 C7 1 7 1 7.06 4.06 C7.04 5.03 7.02 6 7 7 C5.02 7.99 5.02 7.99 3 9 C2.01 8.34 1.02 7.68 0 7 C-0.19 3.38 -0.19 3.38 0 0 Z " fill="#CE242E" transform="translate(1058,485)"/>
<path d="M0 0 C7.3 3.2 12.94 10.31 17 17 C16.67 17.99 16.34 18.98 16 20 C15.59 19.53 15.17 19.05 14.75 18.57 C14.17 17.91 13.6 17.24 13 16.56 C12.37 15.84 11.74 15.11 11.09 14.37 C9.67 12.76 8.23 11.16 6.79 9.57 C6.07 8.78 5.36 8 4.62 7.19 C3.96 6.46 3.29 5.73 2.6 4.98 C1 3 1 3 0 0 Z " fill="#0F2947" transform="translate(589,308)"/>
<path d="M0 0 C2 -0.04 4 -0.04 6 0 C7 1 7 1 7.06 4.06 C7.04 5.03 7.02 6 7 7 C5.02 7.99 5.02 7.99 3 9 C2.01 8.34 1.02 7.68 0 7 C-0.19 3.38 -0.19 3.38 0 0 Z " fill="#CE242E" transform="translate(1084,485)"/>
<path d="M0 0 C0.31 0.64 0.62 1.28 0.94 1.94 C1.83 3.94 1.83 3.94 3 5 C3.2 7.18 3.2 7.18 3.25 9.88 C3.28 10.76 3.3 11.64 3.33 12.55 C2.95 15.41 2.21 16.24 0 18 C-1.04 14.58 -1.13 11.44 -1.12 7.88 C-1.13 6.29 -1.13 6.29 -1.13 4.68 C-1 2 -1 2 0 0 Z " fill="#153453" transform="translate(467,258)"/>
<path d="M0 0 C2.46 -0.08 4.92 -0.14 7.38 -0.19 C8.07 -0.21 8.77 -0.24 9.49 -0.26 C11.52 -0.29 11.52 -0.29 15 0 C15.66 0.99 16.32 1.98 17 3 C11.06 3 5.12 3 -1 3 C-0.67 2.01 -0.34 1.02 0 0 Z " fill="#5C6B7D" transform="translate(437,184)"/>
<path d="M0 0 C0.33 0.66 0.66 1.32 1 2 C5.95 2 10.9 2 16 2 C16.33 2.99 16.66 3.98 17 5 C11.72 5 6.44 5 1 5 C0.67 3.35 0.34 1.7 0 0 Z " fill="#0B1932" transform="translate(481,175)"/>
<path d="M0 0 C1.77 0.01 1.77 0.01 3.57 0.03 C4.48 0.04 5.38 0.05 6.31 0.06 C6.31 0.72 6.31 1.38 6.31 2.06 C7.63 2.39 8.95 2.72 10.31 3.06 C3.71 3.06 -2.89 3.06 -9.69 3.06 C-9.69 2.4 -9.69 1.74 -9.69 1.06 C-6.27 -0.08 -3.6 -0.04 0 0 Z " fill="#5C6B7C" transform="translate(487.6875,305.9375)"/>
<path d="M0 0 C0.33 0.99 0.66 1.98 1 3 C-0.91 5.16 -2.82 7.3 -4.75 9.44 C-5.56 10.35 -5.56 10.35 -6.38 11.29 C-6.91 11.87 -7.44 12.46 -7.98 13.06 C-8.47 13.6 -8.95 14.14 -9.44 14.69 C-11.26 16.22 -12.69 16.6 -15 17 C-14.61 16.55 -14.23 16.11 -13.83 15.64 C-11.48 12.92 -9.16 10.2 -6.94 7.38 C-4.78 4.73 -2.44 2.37 0 0 Z " fill="#0B1932" transform="translate(609,493)"/>
<path d="M0 0 C3.12 -0.06 6.25 -0.09 9.38 -0.12 C10.26 -0.14 11.15 -0.16 12.07 -0.18 C12.92 -0.18 13.77 -0.19 14.65 -0.2 C15.83 -0.21 15.83 -0.21 17.03 -0.23 C19 0 19 0 21 2 C20.67 2.99 20.34 3.98 20 5 C20 4.34 20 3.68 20 3 C13.4 2.67 6.8 2.34 0 2 C0 1.34 0 0.68 0 0 Z " fill="#3A4F66" transform="translate(553,75)"/>
<path d="M0 0 C1.65 0.42 3.29 0.86 4.94 1.31 C6.31 1.68 6.31 1.68 7.71 2.05 C8.47 2.36 9.22 2.68 10 3 C10.33 3.99 10.66 4.98 11 6 C10.34 5.93 9.67 5.86 8.99 5.78 C8.11 5.69 7.22 5.6 6.31 5.5 C5.44 5.41 4.57 5.31 3.68 5.22 C1.1 5.01 -1.42 4.96 -4 5 C-2.68 3.35 -1.36 1.7 0 0 Z " fill="#0F2846" transform="translate(508,211)"/>
<path d="M0 0 C3 1 3 1 5 3 C5.66 3.33 6.32 3.66 7 4 C6.67 5.32 6.34 6.64 6 8 C4.12 8.62 4.12 8.62 2 9 C0 7 0 7 -0.12 3.38 C-0.08 2.26 -0.04 1.15 0 0 Z " fill="#173654" transform="translate(606,398)"/>
<path d="M0 0 C3.35 0.58 4.94 1.59 7.25 4.06 C8.03 4.88 8.03 4.88 8.83 5.72 C9.21 6.14 9.6 6.57 10 7 C9.67 7.99 9.34 8.98 9 10 C7.49 8.72 6 7.42 4.5 6.12 C3.66 5.41 2.83 4.69 1.97 3.95 C1.32 3.3 0.67 2.66 0 2 C0 1.34 0 0.68 0 0 Z " fill="#0A1730" transform="translate(405,624)"/>
<path d="M0 0 C-0.99 1.49 -0.99 1.49 -2 3 C-5.12 3.19 -5.12 3.19 -8 3 C-8.66 1.68 -9.32 0.36 -10 -1 C-5.92 -1.93 -3.58 -2.34 0 0 Z " fill="#0A162E" transform="translate(506,212)"/>
<path d="M0 0 C0 4.14 -1.72 5.21 -4.5 8.19 C-5.34 9.09 -6.17 9.99 -7.03 10.92 C-7.68 11.61 -8.33 12.29 -9 13 C-9.66 12.67 -10.32 12.34 -11 12 C-3.7 3.55 -3.7 3.55 0 0 Z " fill="#0A162E" transform="translate(487,620)"/>
<path d="M0 0 C1.98 0 3.96 0 6 0 C6 1.65 6 3.3 6 5 C4.02 5 2.04 5 0 5 C0 3.35 0 1.7 0 0 Z " fill="#112E4E" transform="translate(596,202)"/>
<path d="M0 0 C1.13 0.93 2.25 1.87 3.38 2.81 C4 3.33 4.63 3.86 5.27 4.39 C7 6 7 6 9 9 C8.67 9.99 8.34 10.98 8 12 C6.85 10.76 5.7 9.51 4.56 8.25 C3.92 7.55 3.29 6.86 2.63 6.14 C1.01 4.01 0.42 2.61 0 0 Z " fill="#112E4E" transform="translate(530,223)"/>
</svg>
